<svg preserveAspectRatio="none" width="100%" height="100%" overflow="visible" style="display: block;" viewBox="0 0 57.3658 49.4445" fill="none" xmlns="http://www.w3.org/2000/svg">
<g id="Group">
<path id="Vector" fill-rule="evenodd" clip-rule="evenodd" d="M31.1193 35.4926C31.7749 33.5868 32.3637 30.8081 33.6316 28.3853C38.1109 19.8265 42.9829 11.4721 47.3659 2.86618C49.0589 -0.457353 51.0302 0.657353 53.3267 1.44779C56.3052 2.47353 55.0425 4.37647 54.378 6.19706C52.6593 10.9066 51.0838 15.6735 49.2072 20.3176C48.2675 22.6404 48.36 23.8257 50.8665 25.1603C56.0035 27.8934 58.3932 34.0037 56.9513 39.2316C55.2436 45.4176 50.2439 49.4169 44.2009 49.4272C38.3847 49.4375 33.3974 45.8243 31.8425 40.361C31.4812 39.0897 31.4394 37.7257 31.1193 35.4926ZM17.8127 0C25.1537 2.63456 24.2867 2.04559 22.2185 8.24559C20.8639 12.3044 19.469 16.3537 17.9353 20.3463C17.0477 22.6559 17.3414 23.9206 19.7473 25.2691C24.9159 28.1669 26.5399 33.0257 25.7102 38.7478C25.0032 43.6221 20.9586 47.9316 15.9567 49.0456C10.5833 50.2419 5.91683 48.7676 2.62331 44.3478C-1.0696 39.3949 -0.523376 33.9618 2.15637 28.7757C5.91756 21.4971 9.93571 14.3515 13.8533 7.15368C15.133 4.80441 16.4435 2.47206 17.8127 0Z" fill="var(--fill-0, #007EA5)"/>
</g>
</svg>
