<svg preserveAspectRatio="none" width="100%" height="100%" overflow="visible" style="display: block;" viewBox="0 0 200 269.444" fill="none" xmlns="http://www.w3.org/2000/svg">
<g id="icon-pass.svg" clip-path="url(#clip0_41_1752)">
<path id="Oval" d="M101.667 213.333C153.827 213.333 196.112 171.049 196.112 118.889C196.112 66.7286 153.827 24.4443 101.667 24.4443C49.5069 24.4443 7.22266 66.7286 7.22266 118.889C7.22266 171.049 49.5069 213.333 101.667 213.333Z" fill="var(--fill-0, #ADE7FF)"/>
<g id="Group">
<path id="Vector" d="M105.689 101.983C107.272 105.446 110.714 107.972 114.53 108.32L127.017 110.136L117.92 119.006L117.914 119.012L117.907 119.018C115.107 121.817 113.831 125.595 114.464 129.395V129.394L116.516 141.934L105.086 135.99C101.657 134.13 97.5512 134.094 94.328 136.006L82.9296 141.934L84.9814 129.394L84.9823 129.395C85.6154 125.595 84.3377 121.817 81.538 119.018L81.5263 119.006L72.4286 110.136L84.9228 108.319L84.9374 108.316L84.9511 108.315C88.7044 107.689 91.848 105.485 93.7196 102.054L93.7226 102.049L99.953 90.5098L105.689 101.983Z" fill="var(--fill-0, #265A6E)" stroke="var(--stroke-0, #005873)" stroke-width="2.77778"/>
<path id="Vector_2" d="M151.731 168.04C180.26 139.51 180.26 93.2547 151.731 64.725C123.201 36.1953 76.9451 36.1953 48.4154 64.725C19.8857 93.2547 19.8857 139.51 48.4154 168.04C76.9451 196.57 123.201 196.57 151.731 168.04Z" stroke="var(--stroke-0, #005873)" stroke-width="6.96583" stroke-linecap="round" stroke-linejoin="round"/>
<path id="Vector_3" d="M156.946 116.389C156.946 84.9999 131.39 59.4443 100.001 59.4443C68.6122 59.4443 43.0566 84.9999 43.0566 116.389" stroke="var(--stroke-0, #005873)" stroke-width="6.96583" stroke-linecap="round" stroke-linejoin="round"/>
<path id="Vector_4" d="M166.668 166.667L196.113 206.389L160.28 200.278L154.168 236.389L118.891 186.944" stroke="var(--stroke-0, #005873)" stroke-width="6.96583" stroke-linecap="round" stroke-linejoin="round"/>
<path id="Vector_5" d="M33.3351 166.667L3.89062 206.389L40.0017 200.278L45.8351 236.389L81.1129 186.944" stroke="var(--stroke-0, #005873)" stroke-width="6.96583" stroke-linecap="round" stroke-linejoin="round"/>
</g>
</g>
<defs>
<clipPath id="clip0_41_1752">
<rect width="200" height="269.444" fill="white"/>
</clipPath>
</defs>
</svg>
