<svg preserveAspectRatio="none" width="100%" height="100%" overflow="visible" style="display: block;" viewBox="0 0 200 269.444" fill="none" xmlns="http://www.w3.org/2000/svg">
<g id="icon-enroll.svg">
<path id="Oval" d="M101.667 195.833C153.827 195.833 196.112 153.549 196.112 101.389C196.112 49.2286 153.827 6.94434 101.667 6.94434C49.5069 6.94434 7.22266 49.2286 7.22266 101.389C7.22266 153.549 49.5069 195.833 101.667 195.833Z" fill="var(--fill-0, #ADE7FF)"/>
<g id="Group">
<path id="Vector" d="M126.667 73.6113H115" stroke="var(--stroke-0, #005873)" stroke-width="7.16194" stroke-linecap="round" stroke-linejoin="round"/>
<path id="Vector_2" d="M129.446 89.7227L117.779 93.8893" stroke="var(--stroke-0, #005873)" stroke-width="7.16194" stroke-linecap="round" stroke-linejoin="round"/>
<path id="Vector_3" d="M130.278 57.778L118.611 53.6113" stroke="var(--stroke-0, #005873)" stroke-width="7.16194" stroke-linecap="round" stroke-linejoin="round"/>
<path id="XMLID_233_" d="M42.7793 183.611V223.611" stroke="var(--stroke-0, #005873)" stroke-width="7.16194" stroke-linecap="round" stroke-linejoin="round"/>
<path id="XMLID_232_" d="M11.668 223.611V220C11.668 210.833 19.168 203.333 28.3346 203.333H57.7791C66.9457 203.333 74.4457 210.833 74.4457 220V223.611" stroke="var(--stroke-0, #005873)" stroke-width="7.16194" stroke-linecap="round" stroke-linejoin="round"/>
<path id="XMLID_231_" d="M50.0002 230.556C50.0002 226.667 46.9447 223.611 43.0558 223.611C39.1669 223.611 36.1113 226.667 36.1113 230.556C36.1113 234.445 39.1669 237.5 43.0558 237.5C46.6669 237.5 50.0002 234.445 50.0002 230.556Z" stroke="var(--stroke-0, #005873)" stroke-width="7.16194" stroke-linecap="round" stroke-linejoin="round"/>
<path id="XMLID_230_" d="M81.1115 230.556C81.1115 226.667 78.056 223.611 74.1671 223.611C70.2782 223.611 67.2227 226.667 67.2227 230.556C67.2227 234.445 70.2782 237.5 74.1671 237.5C78.056 237.5 81.1115 234.445 81.1115 230.556Z" stroke="var(--stroke-0, #005873)" stroke-width="7.16194" stroke-linecap="round" stroke-linejoin="round"/>
<path id="XMLID_229_" d="M18.6115 230.556C18.6115 226.667 15.556 223.611 11.6671 223.611C7.77821 223.611 4.72266 226.667 4.72266 230.556C4.72266 234.445 7.77821 237.5 11.6671 237.5C15.556 237.5 18.6115 234.445 18.6115 230.556Z" stroke="var(--stroke-0, #005873)" stroke-width="7.16194" stroke-linecap="round" stroke-linejoin="round"/>
<path id="Vector_4" d="M78.0564 183.611H20.2786C11.6675 183.611 4.44531 176.667 4.44531 167.778V92.5002" stroke="var(--stroke-0, #005873)" stroke-width="7.16194" stroke-linecap="round" stroke-linejoin="round"/>
<path id="Vector_5" d="M196.112 183.611L189.445 181.667C159.167 173.056 126.945 173.056 96.3893 181.389L89.7227 183.611" stroke="var(--stroke-0, #005873)" stroke-width="7.16194" stroke-linecap="round" stroke-linejoin="round"/>
<path id="Vector_6" d="M90 236.667V142.5C90 139.167 92.7778 136.111 96.3889 136.111H190C193.333 136.111 196.389 138.889 196.389 142.5V236.667" stroke="var(--stroke-0, #005873)" stroke-width="7.16194" stroke-linecap="round" stroke-linejoin="round"/>
<path id="Vector_7" d="M185.278 147.5V169.342C171.264 165.976 156.769 164.167 142.778 164.167C128.791 164.167 114.818 165.975 101.111 169.087V147.5H185.278Z" fill="var(--fill-0, #265A6E)" stroke="var(--stroke-0, #005873)" stroke-width="2.77778"/>
<path id="Vector_8" d="M179.723 136.389V133.611C179.723 128.611 175.556 124.445 170.556 124.445H148.612C143.612 124.445 139.445 128.611 139.445 133.611V136.389" stroke="var(--stroke-0, #005873)" stroke-width="7.16194" stroke-linecap="round" stroke-linejoin="round"/>
<path id="Vector_9" d="M159.445 124.167V108.334" stroke="var(--stroke-0, #005873)" stroke-width="7.16194" stroke-linecap="round" stroke-linejoin="round"/>
<path id="Vector_10" d="M163.056 108.334H145.556V39.1669H163.056C168.612 39.1669 173.334 43.8891 173.334 49.4446V98.0558C173.334 103.889 168.612 108.334 163.056 108.334Z" stroke="var(--stroke-0, #005873)" stroke-width="7.16194" stroke-linecap="round" stroke-linejoin="round"/>
<path id="Vector_11" d="M61.6671 45.5558C59.4449 35.5558 49.7227 28.8891 39.4449 31.1113C29.4449 33.3335 22.7783 43.0558 25.0005 53.3335C27.2227 63.3335 36.9449 70.0002 47.2227 67.778C57.2227 65.5558 63.6116 55.8335 61.6671 45.5558Z" stroke="var(--stroke-0, #005873)" stroke-width="7.16194" stroke-linecap="round" stroke-linejoin="round"/>
<path id="Vector_12" d="M25.5564 158.056H88.8898" stroke="var(--stroke-0, #005873)" stroke-width="7.16194" stroke-linecap="round" stroke-linejoin="round"/>
<path id="Vector_13" d="M76.9458 124.167H107.779V118.889C107.779 114.445 104.168 110.834 99.7236 110.834H86.9458C72.5014 110.834 63.3347 108.611 61.1125 94.4448C59.7236 85.8337 52.5014 79.167 43.6125 79.167C33.8902 79.167 25.8347 87.2226 25.8347 96.9448V157.5C25.8347 157.5 21.3902 165.278 25.8347 173.056" stroke="var(--stroke-0, #005873)" stroke-width="7.16194" stroke-linecap="round" stroke-linejoin="round"/>
<path id="Vector_14" d="M61.1113 158.056V133.333" stroke="var(--stroke-0, #005873)" stroke-width="7.16194" stroke-linecap="round" stroke-linejoin="round"/>
<path id="Vector_15" d="M112.223 177.778V236.667" stroke="var(--stroke-0, #005873)" stroke-width="7.16194" stroke-linecap="round" stroke-linejoin="round"/>
</g>
</g>
</svg>
