<svg preserveAspectRatio="none" width="100%" height="100%" overflow="visible" style="display: block;" viewBox="0 0 12.86 18.4" fill="none" xmlns="http://www.w3.org/2000/svg">
<g id="Icon">
<path id="Vector" d="M1.09511 3.77971C0.967849 3.90697 0.904219 4.05767 0.904219 4.23182C0.904219 4.40597 0.967849 4.55667 1.09511 4.68393L6.43 10.0188L1.09511 15.3537C0.967849 15.481 0.904219 15.6317 0.904219 15.8058C0.904219 15.98 0.967849 16.1307 1.09511 16.2579L2.76289 17.9257C2.89015 18.053 3.04085 18.1166 3.215 18.1166C3.38915 18.1166 3.53985 18.053 3.66711 17.9257L11.1219 10.4709C11.2492 10.3437 11.3128 10.193 11.3128 10.0188C11.3128 9.84467 11.2492 9.69397 11.1219 9.56671L3.66711 2.11193C3.53985 1.98467 3.38915 1.92104 3.215 1.92104C3.04085 1.92104 2.89015 1.98467 2.76289 2.11193L1.09511 3.77971Z" fill="var(--fill-0, #171717)"/>
</g>
</svg>
