<svg preserveAspectRatio="none" width="100%" height="100%" overflow="visible" style="display: block;" viewBox="0 0 200 269.444" fill="none" xmlns="http://www.w3.org/2000/svg">
<g id="icon-attend.svg">
<path id="Oval" d="M101.667 203.611C153.827 203.611 196.112 161.327 196.112 109.167C196.112 57.0064 153.827 14.7222 101.667 14.7222C49.5069 14.7222 7.22266 57.0064 7.22266 109.167C7.22266 161.327 49.5069 203.611 101.667 203.611Z" fill="var(--fill-0, #ADE7FF)"/>
<g id="Group">
<g id="Group_2">
<path id="Vector" d="M104.723 119.445L126.112 137.778V160.278" stroke="var(--stroke-0, #005873)" stroke-width="6.94444" stroke-linecap="round" stroke-linejoin="round"/>
<path id="Vector_2" d="M59.4441 118.889L37.7774 137.778V160.278" stroke="var(--stroke-0, #005873)" stroke-width="6.94444" stroke-linecap="round" stroke-linejoin="round"/>
</g>
<path id="Vector_3" d="M82.2225 120.833C96.6433 120.833 108.334 106.904 108.334 89.7222C108.334 72.54 96.6433 58.6111 82.2225 58.6111C67.8018 58.6111 56.1114 72.54 56.1114 89.7222C56.1114 106.904 67.8018 120.833 82.2225 120.833Z" stroke="var(--stroke-0, #005873)" stroke-width="6.94444" stroke-linecap="round" stroke-linejoin="round"/>
<path id="Vector_4" d="M141.667 218.889L155.833 170.833C157.5 165.556 153.333 160.278 148.056 160.278H81.9444H15.8333C10.2778 160.278 6.38889 165.556 8.05556 170.833L22.2222 218.889H82.2222" stroke="var(--stroke-0, #005873)" stroke-width="6.94444" stroke-linecap="round" stroke-linejoin="round"/>
<path id="Vector_5" d="M12.2222 208.889L4.72222 223.333C2.5 227.5 5.55556 232.5 10.2778 232.5H82.2222H154.167C158.889 232.5 161.944 227.5 159.722 223.333L152.222 208.889" stroke="var(--stroke-0, #005873)" stroke-width="6.94444" stroke-linecap="round" stroke-linejoin="round"/>
<path id="Vector_6" d="M141.111 94.7222L129.166 106.389V76.1111V56.1111C129.166 49.1667 134.722 43.8889 141.388 43.8889H183.611C190.555 43.8889 195.833 49.4444 195.833 56.1111V82.2222C195.833 89.1667 190.277 94.4444 183.611 94.4444L141.111 94.7222Z" stroke="var(--stroke-0, #005873)" stroke-width="6.94444" stroke-linecap="round" stroke-linejoin="round"/>
<path id="Vector_7" d="M140.277 69.7224H185.833" stroke="var(--stroke-0, #005873)" stroke-width="6.94444" stroke-linecap="round" stroke-linejoin="round"/>
<path id="Vector_8" d="M145.07 170.833L142.027 180.833H21.8839L19.0587 170.833H145.07Z" fill="var(--fill-0, #265A6E)" stroke="var(--stroke-0, #005873)" stroke-width="2.77778"/>
</g>
</g>
</svg>
