<svg preserveAspectRatio="none" width="100%" height="100%" overflow="visible" style="display: block;" viewBox="0 0 14 14.4" fill="none" xmlns="http://www.w3.org/2000/svg">
<g id="Icon">
<path id="Vector" d="M1.16406 6.55547C1.01823 6.7013 0.945312 6.87839 0.945312 7.08672C0.945312 7.29505 1.01823 7.47214 1.16406 7.61797L2.22656 8.68047C2.3724 8.8263 2.54948 8.89922 2.75781 8.89922C2.96615 8.89922 3.14323 8.8263 3.28906 8.68047L5.58594 6.37578L10.7109 11.5086C10.8568 11.6544 11.0339 11.7273 11.2422 11.7273C11.4505 11.7273 11.6276 11.6544 11.7734 11.5086L12.8359 10.4461C12.9818 10.3003 13.0547 10.1232 13.0547 9.91484C13.0547 9.70651 12.9818 9.52943 12.8359 9.38359L7.17969 3.72734L6.11719 2.66484C5.97135 2.51901 5.79427 2.44609 5.58594 2.44609C5.3776 2.44609 5.20052 2.51901 5.05469 2.66484L3.99219 3.72734L1.16406 6.55547Z" fill="var(--fill-0, white)"/>
</g>
</svg>
