<svg preserveAspectRatio="none" width="100%" height="100%" overflow="visible" style="display: block;" viewBox="0 0 50 50" fill="none" xmlns="http://www.w3.org/2000/svg">
<g id="icon-mail.svg" clip-path="url(#clip0_31_1529)">
<path id="Vector" d="M50 0H0V50H50V0Z" fill="var(--fill-0, white)"/>
<path id="Vector_2" d="M25.3882 42.832C33.7413 42.832 40.5128 36.0894 40.5128 27.7719C40.5128 19.4545 33.7413 12.7119 25.3882 12.7119C17.0351 12.7119 10.2636 19.4545 10.2636 27.7719C10.2636 36.0894 17.0351 42.832 25.3882 42.832Z" fill="var(--fill-0, #00B6FF)" fill-opacity="0.171465"/>
<path id="Vector_3" d="M11.6777 41.5105L24.0965 32.4942C24.8802 31.9259 25.9161 31.9242 26.6998 32.4908L39.1677 41.5105" stroke="var(--stroke-0, #005873)" stroke-width="1.69492" stroke-linecap="round" stroke-linejoin="round"/>
<path id="Vector_4" d="M35.3553 17.6819L41.6518 22.1944C42.1105 22.6493 42.3729 23.2802 42.3729 23.9414V42.5187C42.3729 43.8413 41.3471 44.9153 40.0844 44.9153H10.7631C9.49864 44.9153 8.47458 43.8413 8.47458 42.5187V23.9398C8.47458 23.2802 8.73356 22.6493 9.19229 22.1944L13.5389 19.5897" stroke="var(--stroke-0, #005873)" stroke-width="1.69492" stroke-linecap="round" stroke-linejoin="round"/>
<path id="Vector_5" d="M31.8828 32.2134L39.1442 26.2887" stroke="var(--stroke-0, #005873)" stroke-width="1.69492" stroke-linecap="round" stroke-linejoin="round"/>
<path id="Vector_6" d="M11.7031 26.288L18.9221 32.216" stroke="var(--stroke-0, #005873)" stroke-width="1.69492" stroke-linecap="round" stroke-linejoin="round"/>
<path id="Vector_7" d="M22.0667 26.2278V19.4625L13.6035 11.0061V14.3886" stroke="var(--stroke-0, #005873)" stroke-width="1.69492" stroke-linecap="round" stroke-linejoin="round"/>
<path id="Vector_8" d="M28.8379 26.2278V16.08L35.6084 9.31482H32.2231" stroke="var(--stroke-0, #005873)" stroke-width="1.69492" stroke-linecap="round" stroke-linejoin="round"/>
<path id="Vector_9" d="M13.6035 11.0061H16.9888" stroke="var(--stroke-0, #005873)" stroke-width="1.69492" stroke-linecap="round" stroke-linejoin="round"/>
<path id="Vector_10" d="M35.6074 12.6974V9.31482" stroke="var(--stroke-0, #005873)" stroke-width="1.69492" stroke-linecap="round" stroke-linejoin="round"/>
<path id="Vector_11" d="M22.0664 9.31488L25.4517 5.93225V27.9191" stroke="var(--stroke-0, #005873)" stroke-width="1.69492" stroke-linecap="round" stroke-linejoin="round"/>
<path id="Vector_12" d="M28.8384 9.31488L25.4531 5.93225" stroke="var(--stroke-0, #005873)" stroke-width="1.69492" stroke-linecap="round" stroke-linejoin="round"/>
</g>
<defs>
<clipPath id="clip0_31_1529">
<rect width="50" height="50" fill="white"/>
</clipPath>
</defs>
</svg>
