<svg preserveAspectRatio="none" width="100%" height="100%" overflow="visible" style="display: block;" viewBox="0 0 220 96" fill="none" xmlns="http://www.w3.org/2000/svg">
<g id="Img - PMP&#194;&#174;">
<path id="Vector" d="M196.772 9.07563C204.575 9.07563 210.927 15.4285 210.927 23.2336V72.7664C210.927 80.5715 204.575 86.9244 196.772 86.9244H23.228C15.4248 86.9244 9.07341 80.5715 9.07341 72.7664V23.2336C9.07341 15.4285 15.4248 9.07563 23.228 9.07563H196.772ZM196.772 0H23.228C10.4042 0 0 10.4067 0 23.2336V72.7664C0 85.5933 10.4042 96 23.228 96H196.772C209.596 96 220 85.5933 220 72.7664V23.2336C220 10.4067 209.596 0 196.772 0Z" fill="var(--fill-0, white)"/>
<path id="Vector_2" d="M166.386 32.4703C167.414 31.8855 168.543 31.583 169.794 31.583C171.043 31.583 172.212 31.8855 173.242 32.4703C174.29 33.0553 175.096 33.8619 175.702 34.8703C176.306 35.8787 176.588 37.0082 176.588 38.2385C176.588 39.4687 176.286 40.5779 175.702 41.5863C175.116 42.5947 174.29 43.3813 173.242 43.9662C172.192 44.551 171.043 44.8334 169.794 44.8334C168.543 44.8334 167.414 44.551 166.386 43.9662C165.358 43.3813 164.531 42.5947 163.946 41.6065C163.342 40.6182 163.039 39.4889 163.039 38.2787C163.039 37.0687 163.342 35.9191 163.946 34.8905C164.551 33.8619 165.358 33.0754 166.386 32.4703ZM172.455 33.6805C171.668 33.2367 170.782 32.9947 169.794 32.9947C168.806 32.9947 167.959 33.2166 167.152 33.6805C166.366 34.1242 165.74 34.7695 165.296 35.5762C164.834 36.383 164.611 37.2906 164.611 38.2787C164.611 39.267 164.834 40.1141 165.296 40.9207C165.74 41.7074 166.366 42.3326 167.152 42.7762C167.938 43.2199 168.826 43.4619 169.794 43.4619C170.762 43.4619 171.668 43.2401 172.455 42.7762C173.242 42.3326 173.866 41.7074 174.31 40.9006C174.754 40.0939 174.995 39.2266 174.995 38.2586C174.995 37.2905 174.774 36.383 174.31 35.5762C173.846 34.7695 173.242 34.1443 172.455 33.7006V33.6805ZM172.112 35.2737C172.616 35.6973 172.878 36.2619 172.878 36.9678C172.878 37.4519 172.738 37.8754 172.475 38.2385C172.212 38.6014 171.85 38.8838 171.366 39.0451L172.939 41.8283H171.204L169.814 39.3678H168.806V41.8283H167.232V34.6485H170.075C170.943 34.6485 171.628 34.8502 172.132 35.2737H172.112ZM169.975 38.0771C170.358 38.0771 170.66 37.9762 170.882 37.7746C171.104 37.5729 171.224 37.3107 171.224 36.9678C171.224 36.625 171.124 36.383 170.902 36.2014C170.68 36.0199 170.378 35.9393 169.975 35.9393H168.806V38.0771H169.975Z" fill="var(--fill-0, white)"/>
<path id="Vector_3" d="M61.5587 63.7108V31.5831H75.0477C82.3468 31.5831 87.2061 35.9393 87.2061 42.6956C87.2061 49.452 82.3468 53.8083 75.0477 53.8083H70.0069V63.7108H61.5587ZM74.2613 38.4805H69.9868V46.9309H74.2613C76.9229 46.9309 78.6167 45.3175 78.6167 42.7159C78.6167 40.1141 76.9229 38.5007 74.2613 38.5007V38.4805ZM90.7751 63.7108V31.5831H101.966L109.587 53.5259L116.785 31.5831H127.754V63.7108H119.729V44.2485L112.612 63.7108H105.917L98.7999 44.2485V63.7108H90.7751ZM132.795 63.7108V31.5831H146.284C153.583 31.5831 158.443 35.9393 158.443 42.6956C158.443 49.452 153.583 53.8083 146.284 53.8083H141.244V63.7108H132.795ZM145.497 38.4805H141.223V46.9309H145.497C148.159 46.9309 149.853 45.3175 149.853 42.7159C149.853 40.1141 148.159 38.5007 145.497 38.5007V38.4805Z" fill="var(--fill-0, white)"/>
</g>
</svg>
