<svg preserveAspectRatio="none" width="100%" height="100%" overflow="visible" style="display: block;" viewBox="0 0 99.8315 102.768" fill="none" xmlns="http://www.w3.org/2000/svg">
<g id="Group">
<path id="Vector" fill-rule="evenodd" clip-rule="evenodd" d="M2.52633 66.8118L43.9746 101.625C46.7001 103.579 50.5409 102.966 52.5106 100.26L98.6799 36.8436C100.648 34.1385 100.031 30.3256 97.3051 28.3713L52.2907 1.14326C49.5652 -0.811124 45.7238 -0.197306 43.7547 2.50724L1.15211 58.3395C-0.817551 61.0452 -0.198532 64.8574 2.52633 66.8118Z" fill="var(--fill-0, #2E394C)"/>
<path id="Vector_2" fill-rule="evenodd" clip-rule="evenodd" d="M13.4609 54.9512L51.7805 87.5198L91.4708 33.0012L49.5851 8.01782L13.4609 54.9512Z" fill="var(--fill-0, #FEFEFE)"/>
<path id="Vector_3" fill-rule="evenodd" clip-rule="evenodd" d="M23.368 76.993C22.2668 78.5056 22.6093 80.6174 24.1332 81.7105C25.6572 82.8035 27.7843 82.463 28.8855 80.951C29.9868 79.4384 29.6443 77.326 28.1203 76.2335C26.5969 75.1411 24.4687 75.481 23.368 76.993Z" fill="var(--fill-0, #FEFEFE)"/>
<path id="Vector_4" fill-rule="evenodd" clip-rule="evenodd" d="M61.7163 64.9958L30.9004 40.7017L35.711 33.6718L68.1405 56.7013L61.7163 64.9958Z" fill="var(--fill-0, #DEE3E9)"/>
<path id="Vector_5" fill-rule="evenodd" clip-rule="evenodd" d="M52.3003 77.0918L21.4844 52.7978L26.295 45.7678L58.7245 68.7968L52.3003 77.0918Z" fill="var(--fill-0, #DEE3E9)"/>
</g>
</svg>
