<svg width="100" height="103" viewBox="0 0 100 103" fill="none" xmlns="http://www.w3.org/2000/svg">
<g clip-path="url(#clip0_19_812)">
<g clip-path="url(#clip1_19_812)">
<path fill-rule="evenodd" clip-rule="evenodd" d="M2.52633 66.8118L43.9746 101.625C46.7001 103.579 50.5409 102.966 52.5106 100.26L98.6799 36.8436C100.648 34.1385 100.031 30.3256 97.3051 28.3713L52.2907 1.14326C49.5652 -0.811124 45.7238 -0.197306 43.7547 2.50724L1.15211 58.3395C-0.817551 61.0452 -0.198532 64.8574 2.52633 66.8118Z" fill="#2E394C"/>
<path fill-rule="evenodd" clip-rule="evenodd" d="M13.4609 54.9512L51.7805 87.5198L91.4708 33.0012L49.5851 8.01782L13.4609 54.9512Z" fill="#FEFEFE"/>
<path fill-rule="evenodd" clip-rule="evenodd" d="M23.368 76.993C22.2668 78.5056 22.6093 80.6174 24.1332 81.7105C25.6572 82.8035 27.7843 82.463 28.8855 80.951C29.9868 79.4384 29.6443 77.326 28.1203 76.2335C26.5969 75.1411 24.4687 75.481 23.368 76.993Z" fill="#FEFEFE"/>
<path fill-rule="evenodd" clip-rule="evenodd" d="M61.7163 64.9958L30.9004 40.7017L35.711 33.6718L68.1405 56.7013L61.7163 64.9958Z" fill="#DEE3E9"/>
<path fill-rule="evenodd" clip-rule="evenodd" d="M52.3003 77.0918L21.4844 52.7978L26.295 45.7678L58.7245 68.7968L52.3003 77.0918Z" fill="#DEE3E9"/>
<path d="M50.9832 18.932C51.0062 19.0907 51.056 19.2264 51.1329 19.3393C51.2098 19.4522 51.3058 19.5481 51.421 19.627C51.531 19.7024 51.647 19.75 51.769 19.7696C51.8909 19.7893 52.0176 19.7745 52.1491 19.7254C52.2848 19.6756 52.4245 19.587 52.5682 19.4597C52.7118 19.3325 52.8591 19.1588 53.0099 18.9387C53.1538 18.7289 53.2595 18.5417 53.327 18.3774C53.3945 18.213 53.4299 18.068 53.4333 17.9424C53.4409 17.816 53.4195 17.7073 53.369 17.6162C53.3186 17.5252 53.246 17.4473 53.1513 17.3824C52.9773 17.2631 52.812 17.1968 52.6556 17.1836C52.4991 17.1704 52.3276 17.1902 52.141 17.2429L50.9832 18.932ZM52.5601 16.475C52.8302 16.4156 53.0998 16.401 53.3688 16.4312C53.6421 16.4605 53.9157 16.569 54.1895 16.7567C54.3968 16.8988 54.5572 17.0764 54.6706 17.2896C54.7841 17.5028 54.8452 17.7402 54.8538 18.002C54.8625 18.2637 54.8159 18.5458 54.7138 18.8483C54.6162 19.15 54.4577 19.4608 54.2384 19.7807C54.0332 20.0802 53.8015 20.3276 53.5434 20.5231C53.2878 20.7204 53.0205 20.8606 52.7414 20.944C52.4649 21.0291 52.1858 21.0521 51.904 21.0132C51.6248 20.9761 51.3585 20.8707 51.1051 20.697C50.8978 20.5549 50.7439 20.4062 50.6435 20.2509C50.5431 20.0955 50.4695 19.9285 50.4228 19.7497L49.3755 21.2776L48.1854 20.4619L51.7798 15.2179L52.5168 15.7231C52.6653 15.8248 52.7169 15.958 52.6718 16.1227L52.5601 16.475ZM53.5442 22.2785L56.2729 18.2975L57.01 18.8027C57.1584 18.9044 57.21 19.0377 57.1649 19.2023L57.0828 19.462C57.1967 19.4385 57.3088 19.4232 57.419 19.416C57.531 19.4063 57.642 19.409 57.752 19.4242C57.8663 19.4385 57.9787 19.4667 58.0891 19.5085C58.2039 19.5496 58.3189 19.6096 58.4341 19.6885C58.6747 19.8534 58.83 20.0521 58.9002 20.2845C58.9747 20.5161 58.9818 20.7636 58.9216 21.0271C59.0724 20.9498 59.2249 20.9002 59.3793 20.878C59.5361 20.8577 59.688 20.8583 59.8349 20.88C59.9844 20.9035 60.1293 20.9445 60.2697 21.0031C60.4126 21.0635 60.5455 21.1357 60.6684 21.2199C60.8962 21.3761 61.0747 21.5492 61.2039 21.7393C61.3349 21.9269 61.4145 22.1263 61.4428 22.3375C61.4753 22.548 61.4574 22.7689 61.3891 23.0004C61.3224 23.2293 61.2075 23.4628 61.0444 23.7008L59.3104 26.2307L58.1203 25.415L59.8543 22.8851C60.1367 22.4731 60.1014 22.146 59.7482 21.9039C59.5869 21.7934 59.4157 21.7551 59.2346 21.7889C59.0577 21.8219 58.9009 21.9382 58.764 22.1378L57.03 24.6677L55.8399 23.852L57.574 21.3221C57.7301 21.0944 57.7949 20.9037 57.7685 20.7502C57.7421 20.5966 57.6419 20.4602 57.4678 20.3409C57.3603 20.2673 57.2413 20.2214 57.1107 20.2034C56.9827 20.1871 56.8484 20.191 56.7078 20.215L54.7343 23.0942L53.5442 22.2785ZM64.0974 23.6605L61.3687 27.6415L60.1787 26.8258L62.9073 22.8448L64.0974 23.6605ZM64.9675 22.6544C64.9026 22.7491 64.822 22.8255 64.7257 22.8837C64.6312 22.9393 64.5287 22.9763 64.4184 22.9946C64.3097 23.0104 64.1974 23.0068 64.0816 22.9838C63.97 22.96 63.8643 22.9139 63.7645 22.8455C63.6672 22.7788 63.5886 22.6987 63.5287 22.6049C63.4706 22.5087 63.4293 22.407 63.4049 22.3C63.3847 22.1921 63.3835 22.0841 63.4013 21.9759C63.4233 21.8669 63.4668 21.765 63.5317 21.6703C63.5984 21.5731 63.6786 21.4945 63.7723 21.4346C63.8686 21.3765 63.9706 21.3373 64.0785 21.3172C64.1889 21.2988 64.2986 21.3007 64.4076 21.3227C64.5166 21.3448 64.6197 21.3891 64.717 21.4558C64.8168 21.5242 64.8979 21.6061 64.9604 21.7016C65.0254 21.7988 65.0693 21.9023 65.092 22.0118C65.1146 22.1214 65.1162 22.2316 65.0967 22.3424C65.0772 22.4532 65.0342 22.5572 64.9675 22.6544ZM45.9104 26.8353C45.721 26.7055 45.5718 26.5637 45.4628 26.41C45.358 26.2554 45.29 26.0941 45.2586 25.9258C45.2315 25.7568 45.2415 25.5831 45.2885 25.4047C45.3356 25.2263 45.4196 25.0488 45.5407 24.8722L46.951 22.8145L46.6132 22.5829C46.5518 22.5408 46.5125 22.4857 46.4953 22.4175C46.4798 22.3467 46.4984 22.2729 46.551 22.1961L46.8694 21.7316L47.5871 22.0429L48.4869 21.2322C48.6019 21.1304 48.731 21.1286 48.8743 21.2268L49.4962 21.6531L48.6989 22.8163L49.6856 23.4926L49.1277 24.3064L48.1411 23.6302L46.786 25.6073C46.7228 25.6994 46.692 25.7911 46.6934 25.8823C46.6991 25.9728 46.7442 26.0469 46.8287 26.1048C46.8722 26.1346 46.9106 26.1554 46.944 26.167C46.9818 26.1778 47.0144 26.1851 47.0419 26.1889C47.0737 26.1919 47.1012 26.1957 47.1243 26.2003C47.1518 26.2041 47.1784 26.2147 47.204 26.2323C47.2398 26.2568 47.2618 26.2851 47.27 26.317C47.2825 26.3482 47.288 26.3896 47.2865 26.4412L47.2605 27.2529C47.0281 27.2628 46.7957 27.2314 46.5634 27.1587C46.3328 27.0834 46.1152 26.9756 45.9104 26.8353ZM50.9727 25.2663C51.2429 25.1355 51.4994 25.0631 51.7423 25.049C51.9878 25.0367 52.2141 25.1015 52.4214 25.2436C52.6006 25.3664 52.7175 25.5086 52.7722 25.6703L52.0955 26.4929C52.0441 26.5405 51.9961 26.5639 51.9513 26.5634C51.9091 26.5645 51.8625 26.5476 51.8113 26.5125C51.7908 26.4985 51.7648 26.4788 51.7333 26.4534C51.7018 26.4281 51.669 26.4018 51.6349 26.3747C51.6026 26.345 51.5681 26.3157 51.5315 26.2869C51.4991 26.2572 51.4676 26.2318 51.4369 26.2108C51.2629 26.0915 51.0918 26.042 50.9237 26.0622C50.7582 26.0841 50.5835 26.1525 50.3996 26.2671L48.7419 28.6857L47.5518 27.87L50.2804 23.889L50.9868 24.3731C51.0456 24.4135 51.0908 24.4519 51.1221 24.4885C51.1561 24.5268 51.1779 24.5662 51.1877 24.6068C51.2019 24.6466 51.203 24.6888 51.1913 24.7334C51.1821 24.7797 51.165 24.832 51.1402 24.8902L50.9727 25.2663ZM53.687 29.6941C53.442 29.5411 53.2322 29.4274 53.0576 29.3529C52.883 29.2784 52.7351 29.2334 52.6139 29.2181C52.4928 29.2028 52.3941 29.2122 52.3179 29.2466C52.2443 29.2826 52.1838 29.3352 52.1365 29.4043C52.0435 29.5399 52.0148 29.6614 52.0504 29.7685C52.0878 29.8731 52.1782 29.9746 52.3215 30.0728C52.4751 30.1781 52.6278 30.2433 52.7799 30.2685C52.9319 30.2937 53.108 30.2865 53.3081 30.2469L53.687 29.6941ZM52.7842 26.4176C53.1704 26.3701 53.5444 26.3951 53.9064 26.4927C54.2726 26.5895 54.6234 26.7528 54.9586 26.9826C55.1992 27.1475 55.3883 27.3354 55.5259 27.5463C55.6677 27.7564 55.757 27.9775 55.7936 28.2095C55.8345 28.4406 55.825 28.6768 55.7651 28.9178C55.7052 29.1589 55.5972 29.3933 55.4411 29.6211L53.736 32.1087L53.1909 31.7351C53.0783 31.6579 53.003 31.5838 52.9652 31.5127C52.93 31.4434 52.9265 31.347 52.9548 31.2234L53.0203 30.9467C52.8626 30.9628 52.7157 30.9712 52.5797 30.972C52.4438 30.9729 52.3101 30.9621 52.1787 30.9398C52.0516 30.9166 51.9247 30.8767 51.7981 30.82C51.6723 30.7676 51.5415 30.6949 51.4059 30.6019C51.2242 30.4774 51.0749 30.3412 50.958 30.1934C50.8429 30.043 50.7644 29.8858 50.7227 29.7218C50.6834 29.5595 50.6822 29.3912 50.7188 29.2169C50.7573 29.0401 50.8379 28.8622 50.9607 28.683C51.0589 28.5397 51.1938 28.4197 51.3655 28.3229C51.5389 28.2236 51.7551 28.1743 52.0141 28.175C52.2749 28.1732 52.5831 28.234 52.9387 28.3573C53.2943 28.4807 53.7033 28.6933 54.1659 28.9954L54.2817 28.8264C54.4413 28.5935 54.5076 28.3926 54.4805 28.2235C54.4577 28.0537 54.3581 27.9083 54.1815 27.7872C54.0407 27.6908 53.915 27.6272 53.8044 27.5965C53.6938 27.5658 53.5895 27.5451 53.4915 27.5344C53.3961 27.5254 53.3046 27.5135 53.217 27.4986C53.1294 27.4837 53.0395 27.4446 52.9474 27.3815C52.8655 27.3254 52.8104 27.2575 52.7822 27.178C52.7539 27.0984 52.7412 27.0182 52.744 26.9374L52.7842 26.4176ZM58.5191 29.5359L55.7905 33.5169L54.6004 32.7012L57.329 28.7202L58.5191 29.5359ZM59.3892 28.5298C59.3243 28.6245 59.2437 28.7009 59.1475 28.7591C59.0529 28.8146 58.9505 28.8516 58.8401 28.87C58.7314 28.8858 58.6192 28.8822 58.5033 28.8592C58.3917 28.8354 58.286 28.7893 58.1862 28.7209C58.0889 28.6542 58.0104 28.574 57.9505 28.4803C57.8923 28.384 57.851 28.2824 57.8266 28.1753C57.8065 28.0675 57.8053 27.9595 57.823 27.8513C57.8451 27.7423 57.8885 27.6404 57.9534 27.5457C58.0201 27.4484 58.1003 27.3699 58.194 27.31C58.2903 27.2518 58.3923 27.2127 58.5002 27.1926C58.6106 27.1742 58.7203 27.176 58.8293 27.1981C58.9383 27.2201 59.0415 27.2645 59.1387 27.3312C59.2385 27.3996 59.3197 27.4815 59.3821 27.577C59.4471 27.6742 59.491 27.7776 59.5137 27.8872C59.5364 27.9968 59.538 28.107 59.5185 28.2178C59.499 28.3285 59.4559 28.4325 59.3892 28.5298ZM60.2291 31.3399C60.355 31.3209 60.48 31.3087 60.604 31.3034C60.728 31.2981 60.8501 31.3066 60.9703 31.3288C61.0948 31.3502 61.2187 31.3862 61.342 31.4368C61.4696 31.4867 61.5973 31.5554 61.7253 31.6432C61.9428 31.7923 62.1085 31.9622 62.2222 32.153C62.3403 32.343 62.4104 32.5453 62.4326 32.7599C62.4565 32.9719 62.4339 33.1915 62.3647 33.4187C62.2973 33.6433 62.189 33.8644 62.0399 34.0819L60.3059 36.6118L59.1158 35.7961L60.8498 33.2662C60.9831 33.0717 61.0418 32.89 61.0259 32.7211C61.0118 32.5497 60.9177 32.4043 60.7437 32.285C60.6131 32.1956 60.471 32.1395 60.3172 32.1169C60.1678 32.0934 60.0069 32.0922 59.8345 32.1133L57.8873 34.9541L56.6972 34.1384L59.4259 30.1574L60.163 30.6626C60.3114 30.7643 60.363 30.8975 60.3179 31.0622L60.2291 31.3399ZM65.0985 34.0454L62.3698 38.0264L61.1797 37.2108L63.9084 33.2297L65.0985 34.0454ZM65.9686 33.0394C65.9037 33.134 65.8231 33.2105 65.7268 33.2686C65.6323 33.3242 65.5298 33.3612 65.4194 33.3796C65.3108 33.3954 65.1985 33.3918 65.0826 33.3688C64.9711 33.345 64.8654 33.2988 64.7655 33.2304C64.6683 33.1638 64.5897 33.0836 64.5298 32.9899C64.4717 32.8936 64.4304 32.7919 64.4059 32.6849C64.3858 32.5771 64.3846 32.469 64.4024 32.3608C64.4244 32.2518 64.4679 32.15 64.5328 32.0553C64.5995 31.958 64.6796 31.8794 64.7734 31.8195C64.8696 31.7614 64.9717 31.7222 65.0795 31.7021C65.1899 31.6837 65.2996 31.6856 65.4087 31.7076C65.5177 31.7297 65.6208 31.7741 65.7181 31.8407C65.8179 31.9091 65.899 31.9911 65.9615 32.0865C66.0265 32.1838 66.0703 32.2872 66.093 32.3968C66.1157 32.5064 66.1173 32.6165 66.0978 32.7273C66.0783 32.8381 66.0352 32.9421 65.9686 33.0394ZM66.8085 35.8495C66.9344 35.8304 67.0593 35.8183 67.1833 35.813C67.3073 35.8077 67.4294 35.8161 67.5496 35.8383C67.6741 35.8597 67.798 35.8957 67.9213 35.9464C68.0489 35.9962 68.1767 36.065 68.3047 36.1527C68.5222 36.3018 68.6878 36.4718 68.8016 36.6626C68.9196 36.8526 68.9897 37.0549 69.0119 37.2694C69.0359 37.4815 69.0133 37.7011 68.9441 37.9282C68.8766 38.1529 68.7684 38.3739 68.6193 38.5915L66.8852 41.1214L65.6952 40.3057L67.4292 37.7758C67.5625 37.5813 67.6212 37.3996 67.6053 37.2307C67.5911 37.0592 67.4971 36.9139 67.323 36.7946C67.1925 36.7051 67.0504 36.6491 66.8966 36.6264C66.7471 36.603 66.5862 36.6018 66.4138 36.6228L64.4667 39.4637L63.2766 38.648L66.0052 34.6669L66.7423 35.1721C66.8908 35.2739 66.9424 35.4071 66.8973 35.5717L66.8085 35.8495ZM70.7563 40.5415C70.9534 40.6766 71.1288 40.7253 71.2824 40.6877C71.4404 40.6493 71.5729 40.552 71.6799 40.3959C71.7905 40.2347 71.8325 40.0773 71.8061 39.9237C71.7822 39.772 71.6717 39.6285 71.4747 39.4935C71.2776 39.3584 71.1027 39.3062 70.95 39.337C70.7998 39.3695 70.6695 39.4663 70.559 39.6276C70.5063 39.7043 70.4683 39.7817 70.445 39.8598C70.4241 39.9395 70.4201 40.0195 70.4328 40.0997C70.4473 40.1774 70.4795 40.2539 70.5293 40.3295C70.5834 40.4042 70.6591 40.4749 70.7563 40.5415ZM70.07 43.5186C70.1349 43.4239 70.1391 43.3272 70.0828 43.2283C70.0281 43.1269 69.9391 43.0208 69.8157 42.9099C69.6924 42.799 69.5471 42.6844 69.38 42.5661C69.2171 42.4469 69.0578 42.3227 68.9019 42.1933C68.7926 42.1936 68.6917 42.2091 68.5993 42.2398C68.5111 42.2696 68.4398 42.3242 68.3854 42.4035C68.3469 42.4598 68.3233 42.5189 68.3147 42.5808C68.3088 42.6444 68.3251 42.7139 68.3637 42.7892C68.4023 42.8646 68.4667 42.9463 68.5568 43.0344C68.6477 43.1268 68.7725 43.2274 68.9311 43.3362C69.1026 43.4537 69.2504 43.5399 69.3745 43.5949C69.4986 43.6498 69.6049 43.6813 69.6934 43.6894C69.7845 43.6991 69.8604 43.6872 69.9211 43.6536C69.98 43.6225 70.0296 43.5775 70.07 43.5186ZM73.9891 40.3197L73.6918 40.7536C73.6462 40.8201 73.591 40.8594 73.5263 40.8715C73.4642 40.8853 73.3813 40.8718 73.2777 40.8308L72.945 40.6988C72.9218 40.7656 72.8939 40.8311 72.8612 40.8952C72.8311 40.9611 72.7941 41.026 72.7502 41.09C72.6134 41.2896 72.4484 41.4398 72.2552 41.5406C72.0645 41.6432 71.8577 41.7007 71.6346 41.7134C71.4158 41.7252 71.1869 41.6943 70.9477 41.6206C70.7103 41.5444 70.479 41.4291 70.2538 41.2748C70.1923 41.2327 70.1331 41.1902 70.076 41.1472C70.0206 41.1018 69.9683 41.0546 69.919 41.0058C69.7951 40.9999 69.7104 41.0302 69.6648 41.0968C69.6192 41.1633 69.6217 41.2365 69.6723 41.3163C69.7247 41.3936 69.8053 41.479 69.9143 41.5725C70.025 41.6634 70.1528 41.7623 70.2978 41.8692C70.447 41.9752 70.5944 42.0894 70.74 42.2118C70.8874 42.3316 71.0238 42.459 71.1495 42.594C71.2777 42.7308 71.3752 42.8766 71.4421 43.0315C71.5089 43.1864 71.5352 43.3512 71.5209 43.5257C71.5084 43.6976 71.4363 43.8796 71.3048 44.0716C71.182 44.2507 71.0183 44.3962 70.8137 44.508C70.6092 44.6199 70.3769 44.6844 70.1167 44.7017C69.8566 44.719 69.5765 44.6832 69.2764 44.5941C68.9746 44.5076 68.665 44.3556 68.3476 44.1381C68.0354 43.9241 67.7856 43.7096 67.5981 43.4946C67.4133 43.2813 67.2786 43.0744 67.1943 42.8736C67.1108 42.6772 67.0762 42.4917 67.0904 42.3172C67.1047 42.1426 67.1584 41.9876 67.2513 41.8519C67.3724 41.6753 67.5244 41.5632 67.7075 41.5157C67.8906 41.4681 68.0988 41.4717 68.3322 41.5263C68.2753 41.4008 68.2502 41.2726 68.2571 41.1419C68.2639 41.0112 68.3173 40.8729 68.4173 40.727C68.4577 40.6681 68.51 40.6137 68.5744 40.5638C68.6404 40.5113 68.7163 40.4692 68.8019 40.4376C68.8918 40.4052 68.9893 40.3837 69.0945 40.373C69.1996 40.3623 69.3132 40.3667 69.4351 40.3864C69.3032 40.1342 69.2386 39.8774 69.2411 39.6158C69.2453 39.3516 69.3299 39.0992 69.4948 38.8587C69.6316 38.659 69.7966 38.5088 69.9899 38.408C70.1848 38.3047 70.393 38.248 70.6143 38.2379C70.8399 38.2271 71.0727 38.2606 71.3127 38.3386C71.5544 38.414 71.7917 38.5315 72.0246 38.6911C72.3624 38.9227 72.618 39.1919 72.7914 39.4988L73.9891 40.3197ZM43.735 31.3593C43.49 31.2064 43.2802 31.0927 43.1056 31.0181C42.9309 30.9436 42.7831 30.8986 42.6619 30.8833C42.5408 30.868 42.4421 30.8775 42.3659 30.9118C42.2923 30.9478 42.2318 31.0004 42.1844 31.0695C42.0915 31.2052 42.0628 31.3266 42.0984 31.4337C42.1358 31.5384 42.2262 31.6398 42.3695 31.738C42.523 31.8433 42.6758 31.9085 42.8278 31.9337C42.9798 31.9589 43.1559 31.9517 43.3561 31.9121L43.735 31.3593ZM42.8322 28.0829C43.2184 28.0353 43.5924 28.0604 43.9544 28.158C44.3206 28.2548 44.6714 28.4181 45.0066 28.6479C45.2472 28.8128 45.4363 29.0007 45.5738 29.2116C45.7157 29.4217 45.805 29.6427 45.8416 29.8747C45.8825 30.1059 45.873 30.342 45.8131 30.583C45.7532 30.8241 45.6452 31.0585 45.4891 31.2863L43.784 33.774L43.2389 33.4003C43.1262 33.3231 43.051 33.249 43.0132 33.178C42.978 33.1087 42.9745 33.0122 43.0027 32.8887L43.0683 32.6119C42.9106 32.628 42.7637 32.6364 42.6277 32.6373C42.4917 32.6381 42.358 32.6273 42.2267 32.605C42.0996 32.5818 41.9727 32.5419 41.8461 32.4852C41.7202 32.4328 41.5895 32.3601 41.4539 32.2672C41.2721 32.1426 41.1229 32.0064 41.006 31.8586C40.8909 31.7082 40.8124 31.551 40.7707 31.387C40.7314 31.2247 40.7302 31.0564 40.7668 30.8822C40.8052 30.7054 40.8858 30.5274 41.0086 30.3482C41.1069 30.2049 41.2418 30.0849 41.4135 29.9881C41.5869 29.8888 41.8031 29.8395 42.0621 29.8403C42.3229 29.8384 42.6311 29.8992 42.9867 30.0226C43.3423 30.1459 43.7513 30.3586 44.2139 30.6606L44.3297 30.4917C44.4893 30.2588 44.5556 30.0578 44.5285 29.8888C44.5057 29.7189 44.406 29.5735 44.2295 29.4525C44.0887 29.356 43.963 29.2924 43.8524 29.2617C43.7417 29.231 43.6374 29.2103 43.5395 29.1996C43.4441 29.1906 43.3526 29.1787 43.265 29.1638C43.1774 29.1489 43.0875 29.1099 42.9954 29.0467C42.9135 28.9906 42.8584 28.9227 42.8302 28.8432C42.8019 28.7637 42.7892 28.6835 42.7919 28.6026L42.8322 28.0829ZM49.6281 33.3164C49.5625 33.3353 49.5042 33.3462 49.4534 33.349C49.4026 33.3518 49.3465 33.3321 49.2851 33.29C49.2262 33.2497 49.1821 33.1988 49.1528 33.1373C49.126 33.0776 49.0946 33.0109 49.0585 32.9373C49.0242 32.8611 48.9771 32.7817 48.917 32.6992C48.857 32.6167 48.7681 32.5351 48.6504 32.4544C48.5045 32.3544 48.3594 32.2944 48.215 32.2745C48.0733 32.2563 47.9336 32.2735 47.7961 32.3259C47.6586 32.3784 47.5232 32.4661 47.39 32.5892C47.2584 32.7097 47.1304 32.8608 47.0059 33.0425C46.7445 33.4239 46.6166 33.7669 46.6221 34.0717C46.6302 34.3781 46.7635 34.62 47.022 34.7971C47.1602 34.8919 47.2804 34.9498 47.3826 34.9709C47.489 34.9912 47.5844 35.0002 47.6688 34.9978C47.7549 34.9929 47.8333 34.9883 47.9039 34.9841C47.9771 34.9816 48.0495 35.0049 48.1212 35.054C48.2159 35.1189 48.2639 35.2026 48.2651 35.305L48.3186 35.9679C48.0992 36.0245 47.8911 36.0511 47.694 36.0477C47.4987 36.0417 47.3119 36.0152 47.1335 35.9682C46.9594 35.9203 46.7945 35.8562 46.6389 35.7759C46.4816 35.6982 46.3351 35.6128 46.1994 35.5198C45.9563 35.3532 45.755 35.1475 45.5955 34.9027C45.4385 34.6597 45.3352 34.3933 45.2856 34.1035C45.2403 33.8129 45.2554 33.5054 45.331 33.1811C45.4092 32.8585 45.5605 32.5334 45.7851 32.2058C45.9815 31.9192 46.2071 31.6807 46.4617 31.4903C46.7206 31.2991 46.9955 31.1697 47.2864 31.102C47.5817 31.0335 47.8881 31.031 48.2057 31.0945C48.5259 31.1597 48.8485 31.3037 49.1735 31.5265C49.4857 31.7405 49.7254 31.9781 49.8924 32.2393C50.0595 32.5005 50.1719 32.792 50.2297 33.1137L49.6281 33.3164ZM51.5965 36.7476C51.3515 36.5947 51.1417 36.481 50.9671 36.4065C50.7925 36.3319 50.6446 36.287 50.5234 36.2717C50.4023 36.2563 50.3036 36.2658 50.2274 36.3001C50.1538 36.3362 50.0933 36.3888 50.046 36.4579C49.953 36.5935 49.9243 36.7149 49.9599 36.8221C49.9973 36.9267 50.0877 37.0282 50.231 37.1264C50.3846 37.2316 50.5373 37.2969 50.6894 37.3221C50.8414 37.3472 51.0175 37.34 51.2176 37.3004L51.5965 36.7476ZM50.6937 33.4712C51.0799 33.4237 51.4539 33.4487 51.8159 33.5463C52.1821 33.6431 52.5329 33.8064 52.8681 34.0362C53.1087 34.2011 53.2978 34.389 53.4354 34.5999C53.5772 34.81 53.6665 35.0311 53.7031 35.263C53.744 35.4942 53.7345 35.7303 53.6746 35.9714C53.6147 36.2125 53.5067 36.4469 53.3506 36.6747L51.6455 39.1623L51.1004 38.7887C50.9878 38.7115 50.9125 38.6374 50.8747 38.5663C50.8395 38.497 50.836 38.4006 50.8643 38.277L50.9298 38.0003C50.7721 38.0164 50.6252 38.0248 50.4892 38.0256C50.3533 38.0265 50.2196 38.0157 50.0882 37.9934C49.9611 37.9702 49.8342 37.9303 49.7076 37.8736C49.5818 37.8212 49.451 37.7485 49.3154 37.6555C49.1337 37.531 48.9844 37.3948 48.8675 37.247C48.7524 37.0966 48.6739 36.9394 48.6322 36.7753C48.5929 36.613 48.5917 36.4448 48.6283 36.2705C48.6668 36.0937 48.7474 35.9158 48.8702 35.7366C48.9684 35.5933 49.1033 35.4732 49.275 35.3765C49.4484 35.2772 49.6646 35.2279 49.9236 35.2286C50.1844 35.2268 50.4926 35.2876 50.8482 35.4109C51.2038 35.5343 51.6128 35.7469 52.0754 36.0489L52.1912 35.88C52.3508 35.6471 52.4171 35.4462 52.39 35.2771C52.3672 35.1073 52.2676 34.9619 52.091 34.8408C51.9502 34.7443 51.8245 34.6808 51.7139 34.6501C51.6033 34.6194 51.499 34.5987 51.401 34.588C51.3056 34.579 51.2141 34.567 51.1265 34.5521C51.0389 34.5373 50.949 34.4982 50.8569 34.4351C50.775 34.3789 50.7199 34.3111 50.6917 34.2316C50.6634 34.152 50.6507 34.0718 50.6535 33.991L50.6937 33.4712ZM56.8949 38.4776C56.8737 38.3164 56.8238 38.1807 56.7452 38.0704C56.6683 37.9575 56.5723 37.8616 56.4571 37.7827C56.3471 37.7072 56.2311 37.6597 56.1091 37.64C55.9872 37.6204 55.8583 37.6355 55.7226 37.6854C55.5911 37.7345 55.4536 37.8227 55.3099 37.9499C55.1663 38.0772 55.0199 38.2496 54.8708 38.4671C54.727 38.677 54.6213 38.8641 54.5537 39.0285C54.4862 39.1928 54.4486 39.3382 54.441 39.4646C54.4377 39.5902 54.4612 39.6986 54.5117 39.7896C54.5622 39.8806 54.6347 39.9585 54.7294 40.0235C54.8164 40.0831 54.8998 40.1289 54.9794 40.1609C55.0633 40.1921 55.1453 40.2125 55.2252 40.2222C55.3051 40.2318 55.3864 40.2311 55.4692 40.2202C55.5563 40.2084 55.6464 40.1893 55.7397 40.163L56.8949 38.4776ZM60.0268 36.4602L56.0878 42.2071L55.3507 41.7019C55.2023 41.6002 55.1506 41.467 55.1958 41.3023L55.3115 40.9359C55.1743 40.966 55.0385 40.9857 54.9041 40.9952C54.7697 41.0047 54.6338 40.9999 54.4964 40.9809C54.3632 40.9611 54.229 40.9237 54.0937 40.8686C53.9593 40.8178 53.8242 40.7459 53.6886 40.653C53.4813 40.5109 53.3209 40.3332 53.2075 40.1201C53.094 39.9069 53.0329 39.6694 53.0243 39.4077C53.0156 39.1459 53.0601 38.8642 53.1578 38.5625C53.2598 38.26 53.4213 37.9476 53.6423 37.6251C53.8458 37.3282 54.0753 37.0812 54.3309 36.8839C54.5882 36.6841 54.8542 36.5429 55.129 36.4604C55.408 36.3771 55.6885 36.3549 55.9702 36.3938C56.252 36.4327 56.5196 36.539 56.773 36.7127C56.9803 36.8547 57.1342 37.0035 57.2346 37.1588C57.335 37.3141 57.4086 37.4812 57.4553 37.6599L58.8367 35.6445L60.0268 36.4602ZM61.1367 42.0396C61.2016 41.9449 61.2519 41.844 61.2877 41.7368C61.3261 41.6315 61.3408 41.5249 61.3319 41.4172C61.3272 41.3087 61.295 41.202 61.2353 41.0971C61.1755 40.9922 61.0817 40.8959 60.9537 40.8082C60.7285 40.6539 60.5072 40.5981 60.2897 40.6409C60.0741 40.6811 59.8624 40.8088 59.6548 41.0239L61.1367 42.0396ZM59.1658 41.7044C58.9762 42.0634 58.9115 42.3745 58.9718 42.6378C59.0339 42.8985 59.1941 43.1175 59.4526 43.2946C59.5908 43.3894 59.7212 43.4543 59.8439 43.4894C59.9665 43.5246 60.0802 43.548 60.1851 43.5597C60.2925 43.5731 60.3896 43.5851 60.4763 43.5957C60.5657 43.608 60.6462 43.6387 60.7179 43.6879C60.8125 43.7528 60.8605 43.8364 60.8618 43.9389L60.9152 44.6018C60.6959 44.6584 60.4839 44.6823 60.2792 44.6737C60.0788 44.6642 59.8855 44.6333 59.6994 44.581C59.5177 44.5279 59.3451 44.4585 59.1819 44.373C59.0194 44.2917 58.8703 44.2046 58.7347 44.1116C58.4557 43.9204 58.2241 43.6958 58.0398 43.4378C57.8598 43.179 57.7391 42.8969 57.6776 42.5915C57.6187 42.2878 57.6267 41.966 57.7016 41.6262C57.7791 41.2881 57.9389 40.9424 58.181 40.5892C58.3634 40.3231 58.581 40.1017 58.8337 39.9251C59.089 39.7502 59.3625 39.6311 59.6542 39.5677C59.9485 39.5061 60.2518 39.5052 60.5643 39.5652C60.8794 39.6269 61.1892 39.7621 61.4938 39.9709C61.7574 40.1516 61.9699 40.3574 62.1313 40.5884C62.2953 40.8212 62.4018 41.0691 62.4509 41.3322C62.5026 41.5971 62.4939 41.8733 62.4248 42.1607C62.36 42.4473 62.2293 42.7339 62.0329 43.0206C61.9715 43.1102 61.9176 43.1805 61.8714 43.2315C61.8251 43.2826 61.7803 43.3177 61.7371 43.3369C61.6938 43.3562 61.6498 43.3599 61.6052 43.3481C61.5632 43.3381 61.5153 43.3147 61.4615 43.2779L59.1658 41.7044ZM61.1843 45.7003L63.9129 41.7193L64.65 42.2245C64.7985 42.3262 64.8501 42.4594 64.805 42.6241L64.7229 42.8838C64.8368 42.8603 64.9488 42.845 65.0591 42.8378C65.1711 42.828 65.2821 42.8308 65.3921 42.846C65.5063 42.8603 65.6187 42.8885 65.7292 42.9303C65.844 42.9714 65.959 43.0314 66.0741 43.1103C66.3147 43.2752 66.4701 43.4739 66.5403 43.7063C66.6147 43.9379 66.6219 44.1854 66.5617 44.4489C66.7124 44.3716 66.865 44.3219 67.0193 44.2998C67.1762 44.2795 67.3281 44.2801 67.475 44.3018C67.6244 44.3253 67.7694 44.3663 67.9097 44.4249C68.0527 44.4853 68.1856 44.5575 68.3084 44.6417C68.5362 44.7979 68.7147 44.971 68.844 45.1611C68.9749 45.3487 69.0546 45.5481 69.0828 45.7593C69.1154 45.9697 69.0975 46.1907 69.0291 46.4222C68.9625 46.6511 68.8476 46.8846 68.6845 47.1226L66.9504 49.6525L65.7604 48.8368L67.4944 46.3069C67.7768 45.8949 67.7414 45.5678 67.3882 45.3257C67.227 45.2152 67.0558 45.1769 66.8746 45.2107C66.6978 45.2437 66.5409 45.36 66.4041 45.5596L64.6701 48.0895L63.48 47.2738L65.214 44.7439C65.3701 44.5162 65.435 44.3255 65.4086 44.172C65.3821 44.0184 65.2819 43.882 65.1079 43.7627C65.0004 43.6891 64.8813 43.6432 64.7508 43.6252C64.6227 43.6089 64.4884 43.6128 64.3478 43.6368L62.3744 46.516L61.1843 45.7003ZM74.1819 48.7578L68.6187 52.3137C68.5285 52.3685 68.4455 52.3963 68.3697 52.397C68.2922 52.4003 68.1972 52.3634 68.0846 52.2862L67.1939 51.6758L69.0669 50.5896L69.9667 45.8686L71.0186 46.5896C71.1107 46.6527 71.1671 46.7214 71.1876 46.7957C71.2107 46.8718 71.2145 46.9458 71.199 47.0179L70.6754 49.1813C70.6298 49.3795 70.5701 49.5736 70.4962 49.7637C70.5805 49.7011 70.6648 49.6385 70.7491 49.5759C70.8334 49.5133 70.9181 49.4529 71.0032 49.3946L72.7653 48.0915C72.8287 48.0484 72.9029 48.0278 72.9881 48.0298C73.075 48.0292 73.1531 48.0526 73.2222 48.0999L74.1819 48.7578Z" fill="#007EA5"/>
<path d="M65.5861 28.8768C64.7195 28.2829 64.4985 27.0989 65.0925 26.2323C65.6865 25.3657 66.8705 25.1447 67.7371 25.7387C69.3061 26.8141 68.2849 30.7266 69.854 31.8021C70.7206 32.3961 71.9046 32.1751 72.4986 31.3085C73.0925 30.4419 72.8715 29.2579 72.005 28.6639" stroke="#FF6D30" stroke-width="0.760909" stroke-miterlimit="10" stroke-linecap="round" stroke-linejoin="round"/>
<path d="M72.0023 28.6638C70.4332 27.5883 67.1525 29.9522 65.5834 28.8767" stroke="#FF6D30" stroke-width="0.760909" stroke-miterlimit="10" stroke-linecap="round" stroke-linejoin="round"/>
</g>
</g>
<defs>
<clipPath id="clip0_19_812">
<rect width="100" height="103" fill="white"/>
</clipPath>
<clipPath id="clip1_19_812">
<rect width="100" height="103" fill="white"/>
</clipPath>
</defs>
</svg>
