<svg preserveAspectRatio="none" width="100%" height="100%" overflow="visible" style="display: block;" viewBox="0 0 16 16" fill="none" xmlns="http://www.w3.org/2000/svg">
<g id="Icon" clip-path="url(#clip0_0_257)">
<path id="Vector" d="M9.69066 14.4573C9.71599 14.5205 9.76002 14.5743 9.81684 14.6117C9.87367 14.6491 9.94056 14.6682 10.0086 14.6664C10.0765 14.6647 10.1424 14.6422 10.1972 14.6019C10.252 14.5617 10.2933 14.5057 10.3153 14.4413L14.6487 1.77466C14.67 1.71559 14.6741 1.65167 14.6604 1.59037C14.6467 1.52907 14.6159 1.47293 14.5715 1.42852C14.5271 1.3841 14.4709 1.35326 14.4096 1.33959C14.3483 1.32592 14.2844 1.32999 14.2253 1.35133L1.55866 5.68466C1.49432 5.70673 1.43828 5.74794 1.39804 5.80278C1.3578 5.85761 1.33531 5.92344 1.33356 5.99144C1.33182 6.05943 1.35092 6.12632 1.3883 6.18315C1.42567 6.23997 1.47954 6.284 1.54266 6.30933L6.82933 8.42933C6.99645 8.49624 7.14829 8.5963 7.2757 8.72348C7.40311 8.85066 7.50345 9.00233 7.57066 9.16933L9.69066 14.4573Z" stroke="var(--stroke-0, #DBEBFF)" stroke-width="1.33333" stroke-linecap="round" stroke-linejoin="round"/>
<path id="Vector_2" d="M14.5693 1.43134L7.276 8.724" stroke="var(--stroke-0, #DBEBFF)" stroke-width="1.33333" stroke-linecap="round" stroke-linejoin="round"/>
</g>
<defs>
<clipPath id="clip0_0_257">
<rect width="16" height="16" fill="white"/>
</clipPath>
</defs>
</svg>
