<svg preserveAspectRatio="none" width="100%" height="100%" overflow="visible" style="display: block;" viewBox="0 0 26 22" fill="none" xmlns="http://www.w3.org/2000/svg">
<path id="Vector" d="M17.555 8.1675L11.555 4.1675C11.4044 4.067 11.2293 4.00928 11.0484 4.00052C10.8675 3.99176 10.6877 4.03227 10.528 4.11774C10.3684 4.20321 10.2349 4.33043 10.1419 4.48581C10.0489 4.6412 9.99988 4.81891 10 5V13C9.99988 13.1811 10.0489 13.3588 10.1419 13.5142C10.2349 13.6696 10.3684 13.7968 10.528 13.8823C10.6877 13.9677 10.8675 14.0082 11.0484 13.9995C11.2293 13.9907 11.4044 13.933 11.555 13.8325L17.555 9.8325C17.6922 9.74122 17.8047 9.61745 17.8825 9.47222C17.9603 9.32698 18.001 9.16477 18.001 9C18.001 8.83523 17.9603 8.67302 17.8825 8.52778C17.8047 8.38255 17.6922 8.25878 17.555 8.1675ZM12 11.1313V6.875L15.1975 9L12 11.1313ZM24 0H2C1.46957 0 0.960859 0.210714 0.585786 0.585786C0.210714 0.960859 0 1.46957 0 2V16C0 16.5304 0.210714 17.0391 0.585786 17.4142C0.960859 17.7893 1.46957 18 2 18H24C24.5304 18 25.0391 17.7893 25.4142 17.4142C25.7893 17.0391 26 16.5304 26 16V2C26 1.46957 25.7893 0.960859 25.4142 0.585786C25.0391 0.210714 24.5304 0 24 0ZM24 16H2V2H24V16ZM26 21C26 21.2652 25.8946 21.5196 25.7071 21.7071C25.5196 21.8946 25.2652 22 25 22H1C0.734784 22 0.48043 21.8946 0.292893 21.7071C0.105357 21.5196 0 21.2652 0 21C0 20.7348 0.105357 20.4804 0.292893 20.2929C0.48043 20.1054 0.734784 20 1 20H25C25.2652 20 25.5196 20.1054 25.7071 20.2929C25.8946 20.4804 26 20.7348 26 21Z" fill="var(--fill-0, #60A5FA)"/>
</svg>
