<svg preserveAspectRatio="none" width="100%" height="100%" overflow="visible" style="display: block;" viewBox="0 0 13.9445 8.00411" fill="none" xmlns="http://www.w3.org/2000/svg">
<g id="Group">
<path id="16" d="M7.00409 8.00409C6.87249 8.00485 6.74202 7.97963 6.62019 7.92986C6.49835 7.8801 6.38753 7.80677 6.29409 7.71409L0.294092 1.71409C0.105788 1.52579 0 1.27039 0 1.00409C0 0.73779 0.105788 0.482395 0.294092 0.294092C0.482395 0.105788 0.73779 0 1.00409 0C1.27039 0 1.52579 0.105788 1.71409 0.294092L7.00409 5.59409L12.2941 0.304092C12.4854 0.140266 12.7315 0.054659 12.9831 0.0643802C13.2348 0.0741013 13.4736 0.178434 13.6517 0.356529C13.8297 0.534623 13.9341 0.773362 13.9438 1.02504C13.9535 1.27671 13.8679 1.52279 13.7041 1.71409L7.70409 7.71409C7.51783 7.89884 7.26643 8.00299 7.00409 8.00409Z" fill="var(--fill-0, black)"/>
</g>
</svg>
