<svg preserveAspectRatio="none" width="100%" height="100%" overflow="visible" style="display: block;" viewBox="0 0 14.9977 15.0013" fill="none" xmlns="http://www.w3.org/2000/svg">
<g id="Group">
<path id="Vector" d="M7.50062 0.00100912C5.5118 0.00201039 3.60472 0.792444 2.19832 2.19866C0.791926 3.60488 0.00125184 5.51187 0 7.50068C0.0010015 9.48966 0.791565 11.3969 2.19799 12.8033C3.60441 14.2097 5.51164 15.0003 7.50062 15.0013C8.76544 15 10.0094 14.679 11.1169 14.0681C12.2245 13.4573 13.1597 12.5764 13.8356 11.5074C14.5115 10.4383 14.9063 9.21574 14.9832 7.95326C15.0601 6.69078 14.8167 5.42934 14.2756 4.28613L13.5319 5.02977C13.4622 5.09999 13.3794 5.15575 13.2881 5.19386C13.1968 5.23196 13.0989 5.25166 12.9999 5.25182H12.7921C13.0878 5.94254 13.2513 6.70319 13.2513 7.50068C13.2503 9.02555 12.6441 10.4877 11.5658 11.5659C10.4876 12.6442 9.02548 13.2503 7.50062 13.2513C4.32764 13.2513 1.74996 10.6737 1.74996 7.50068C1.75104 6.55089 1.98721 5.61613 2.43738 4.7798C2.88756 3.94347 3.53775 3.23157 4.32996 2.70762C5.12216 2.18366 6.03173 1.86394 6.97754 1.77698C7.92334 1.69002 8.87597 1.83852 9.75043 2.20924V2.00136C9.75043 1.80199 9.8298 1.61017 9.97153 1.46938L10.7161 0.724803C9.71153 0.247295 8.61292 -0.000617874 7.50062 0.00100912ZM12.244 0.00100912C12.18 0.0029147 12.1191 0.0292912 12.0739 0.0747114L10.324 1.82372C10.3006 1.84701 10.282 1.8747 10.2694 1.90518C10.2567 1.93567 10.2503 1.96836 10.2503 2.00136V3.64833L6.9488 6.94981C6.80339 7.09666 6.72182 7.29497 6.72182 7.50163C6.72182 7.70829 6.80339 7.9066 6.9488 8.05345C7.25117 8.35582 7.74913 8.35487 8.0515 8.05156L11.352 4.75102H12.9999C13.0329 4.75105 13.0656 4.74456 13.0961 4.73191C13.1266 4.71926 13.1543 4.70071 13.1776 4.67732L14.9266 2.92737C14.9608 2.89226 14.984 2.84787 14.9932 2.79971C15.0025 2.75155 14.9974 2.70174 14.9786 2.65646C14.9597 2.61118 14.928 2.57241 14.8874 2.54498C14.8467 2.51756 14.7989 2.50266 14.7499 2.50216H13.6018L13.8012 2.30184C13.9465 2.15544 14.0282 1.95763 14.0286 1.75135C14.0289 1.54508 13.9479 1.34699 13.8031 1.20009C13.6519 1.0489 13.4507 0.973312 13.2503 0.973312C13.05 0.973312 12.8497 1.0489 12.6985 1.20009L12.5001 1.39852V0.249518C12.5 0.216232 12.4932 0.183304 12.4802 0.152658C12.4672 0.122013 12.4483 0.0942656 12.4244 0.0710388C12.4006 0.047812 12.3723 0.029572 12.3414 0.0173855C12.3104 0.00519892 12.2773 0.000255267 12.244 0.00100912ZM7.50062 3.49998C5.29428 3.49998 3.49897 5.29529 3.49897 7.50068C3.49897 9.70608 5.29428 11.5004 7.50062 11.5004C8.56103 11.4994 9.57771 11.0777 10.3274 10.3278C11.0772 9.57787 11.4987 8.56109 11.4994 7.50068C11.4994 6.86477 11.3464 6.26381 11.0818 5.729L9.71169 7.0991C9.76994 7.42299 9.75652 7.7557 9.67238 8.07385C9.58823 8.39199 9.4354 8.68784 9.22464 8.94057C9.01388 9.19331 8.7503 9.39679 8.45245 9.53672C8.1546 9.67665 7.8297 9.74962 7.50062 9.75049C6.90433 9.74974 6.33266 9.5126 5.91093 9.09104C5.4892 8.66949 5.25181 8.09792 5.25081 7.50163C5.25156 6.90534 5.48871 6.33367 5.91026 5.91194C6.33181 5.49021 6.90338 5.25282 7.49968 5.25182C7.63763 5.25182 7.77181 5.26599 7.9022 5.28962L9.27231 3.91951C8.72224 3.64426 8.11572 3.50063 7.50062 3.49998Z" fill="var(--fill-0, white)"/>
</g>
</svg>
