<svg preserveAspectRatio="none" width="100%" height="100%" overflow="visible" style="display: block;" viewBox="0 0 14.6803 14.7695" fill="none" xmlns="http://www.w3.org/2000/svg">
<g id="Group">
<path id="Vector" d="M4.01902 12.4672V13.1606C4.01403 13.3007 4.06075 13.4378 4.15027 13.5458C4.98796 14.5277 6.11493 14.7695 7.34027 14.7695C8.56561 14.7695 9.6934 14.5277 10.5303 13.5458C10.6203 13.4381 10.6674 13.3009 10.6622 13.1606V12.4672C10.6622 11.7565 10.4229 11.114 10.0369 10.65C9.66065 10.196 9.14346 9.91486 8.57793 9.91486H6.10333C5.53771 9.91486 5.02061 10.1961 4.64358 10.65C4.25833 11.114 4.01902 11.7565 4.01902 12.4672ZM8.82286 5.60608C8.52969 5.31291 8.15617 5.11326 7.74953 5.03237C7.3429 4.95149 6.9214 4.993 6.53836 5.15166C6.15531 5.31032 5.82792 5.57901 5.59758 5.92374C5.36723 6.26847 5.24429 6.67377 5.24429 7.08837C5.24429 7.50298 5.36723 7.90827 5.59758 8.253C5.82792 8.59773 6.15531 8.86642 6.53836 9.02508C6.9214 9.18375 7.3429 9.22526 7.74953 9.14437C8.15617 9.06349 8.52969 8.86384 8.82286 8.57067C9.01756 8.37603 9.172 8.14494 9.27737 7.89061C9.38274 7.63627 9.43697 7.36367 9.43697 7.08837C9.43697 6.81307 9.38274 6.54047 9.27737 6.28614C9.172 6.0318 9.01756 5.80071 8.82286 5.60608ZM11.0933 13.4302C11.7982 13.5081 12.6719 13.4696 13.3112 13.2515C13.8017 13.0889 14.2376 12.7939 14.571 12.3991C14.6458 12.3092 14.6847 12.1948 14.68 12.0779V11.468C14.68 10.85 14.4726 10.2911 14.1374 9.88779C13.8112 9.4952 13.3645 9.25176 12.8751 9.25176H10.7014C10.2851 9.25176 9.90886 9.42554 9.61052 9.70586C9.6071 9.70897 9.60448 9.71286 9.60288 9.71719C9.60127 9.72153 9.60072 9.72618 9.60128 9.73077C9.60184 9.73536 9.60349 9.73975 9.6061 9.74357C9.6087 9.74739 9.61217 9.75053 9.61624 9.75273C10.5506 10.2584 11.0924 11.3543 11.0924 12.4673V13.1607C11.0926 13.2395 11.0844 13.3181 11.0678 13.3951C11.0669 13.3991 11.0669 13.4033 11.0677 13.4073C11.0686 13.4113 11.0702 13.4151 11.0726 13.4184C11.075 13.4217 11.0781 13.4245 11.0816 13.4266C11.0852 13.4286 11.0891 13.4299 11.0932 13.4304L11.0933 13.4302ZM12.6375 5.74214C12.4318 5.53653 12.1697 5.39653 11.8845 5.33983C11.5992 5.28314 11.3035 5.3123 11.0349 5.42363C10.7662 5.53495 10.5365 5.72345 10.375 5.96528C10.2134 6.20711 10.1272 6.49141 10.1272 6.78225C10.1272 7.07308 10.2134 7.35739 10.375 7.59922C10.5365 7.84105 10.7662 8.02954 11.0349 8.14087C11.3035 8.25219 11.5992 8.28135 11.8845 8.22466C12.1697 8.16797 12.4318 8.02796 12.6375 7.82236C12.9133 7.54647 13.0682 7.17235 13.0682 6.78225C13.0682 6.39215 12.9133 6.01802 12.6375 5.74214ZM4.12318 5.74214C3.91746 5.53642 3.65537 5.39633 3.37003 5.33957C3.0847 5.28282 2.78894 5.31195 2.52016 5.42328C2.25138 5.53461 2.02166 5.72314 1.86003 5.96504C1.6984 6.20693 1.61213 6.49132 1.61213 6.78225C1.61213 7.07317 1.6984 7.35756 1.86003 7.59946C2.02166 7.84135 2.25138 8.02988 2.52016 8.14122C2.78894 8.25255 3.0847 8.28168 3.37003 8.22492C3.65537 8.16816 3.91746 8.02807 4.12318 7.82236C4.39872 7.54634 4.55349 7.17226 4.55349 6.78225C4.55349 6.39223 4.39872 6.01815 4.12318 5.74214ZM7.95658 1.16714L7.36636 0.0153877C7.36385 0.0107343 7.36012 0.00684754 7.35558 0.00413877C7.35103 0.00143 7.34584 0 7.34055 0C7.33526 0 7.33007 0.00143 7.32553 0.00413877C7.32098 0.00684754 7.31725 0.0107343 7.31474 0.0153877L6.72871 1.15795C6.71247 1.19385 6.68756 1.22515 6.65623 1.24904C6.6249 1.27293 6.58812 1.28866 6.54921 1.29483L5.27224 1.49973C5.26697 1.5006 5.26205 1.50292 5.25801 1.50641C5.25397 1.50991 5.25098 1.51445 5.24936 1.51954C5.24775 1.52463 5.24757 1.53007 5.24885 1.53525C5.25013 1.54044 5.25281 1.54517 5.25661 1.54892L6.1689 2.46689C6.19533 2.49322 6.21514 2.52545 6.22668 2.56094C6.23823 2.59642 6.24118 2.63413 6.2353 2.67098L6.03611 3.94961C6.03527 3.95489 6.0359 3.96031 6.03795 3.96525C6.03999 3.97019 6.04337 3.97448 6.0477 3.97762C6.05203 3.98076 6.05715 3.98264 6.06249 3.98304C6.06782 3.98345 6.07317 3.98237 6.07793 3.97992L7.23277 3.39554C7.26623 3.37874 7.30315 3.37 7.34058 3.37C7.37802 3.37 7.41494 3.37874 7.44839 3.39554L8.60324 3.97992C8.60795 3.98236 8.61326 3.98343 8.61855 3.98301C8.62384 3.98258 8.62891 3.98069 8.63318 3.97753C8.63745 3.97437 8.64075 3.97009 8.6427 3.96515C8.64466 3.96021 8.64519 3.95483 8.64424 3.94961L8.44752 2.68329C8.43953 2.64462 8.44118 2.60457 8.45232 2.56668C8.46346 2.52878 8.48375 2.49422 8.5114 2.46601L9.42452 1.54892C9.42822 1.54513 9.43082 1.5404 9.43204 1.53524C9.43327 1.53008 9.43306 1.52469 9.43146 1.51964C9.42985 1.51459 9.42691 1.51007 9.42293 1.50656C9.41896 1.50305 9.41411 1.50069 9.4089 1.49973L8.1319 1.29414C8.0947 1.28833 8.05942 1.2738 8.02893 1.25171C7.99844 1.22963 7.97363 1.20064 7.95652 1.16711L7.95658 1.16714ZM3.58877 13.1609V12.4672C3.58877 11.3541 4.12974 10.2583 5.06493 9.75257C5.06899 9.75037 5.07247 9.74723 5.07507 9.74341C5.07767 9.73959 5.07932 9.7352 5.07988 9.73061C5.08044 9.72603 5.07989 9.72137 5.07829 9.71704C5.07668 9.7127 5.07406 9.70881 5.07065 9.7057C4.77149 9.42539 4.39527 9.25161 3.97974 9.25161H1.80602C1.31671 9.25161 0.87002 9.49504 0.543801 9.88764C0.208583 10.291 0.000395142 10.85 0.000395142 11.468V12.0779C-0.00441074 12.1949 0.0347627 12.3095 0.110208 12.3991C0.839676 13.2556 1.82405 13.4655 2.89283 13.4655C3.12499 13.4666 3.35704 13.4548 3.58789 13.4302C3.59194 13.4297 3.59584 13.4284 3.59935 13.4263C3.60286 13.4242 3.6059 13.4215 3.60828 13.4181C3.61066 13.4148 3.61234 13.4111 3.61321 13.4071C3.61407 13.4031 3.6141 13.399 3.6133 13.395C3.59672 13.318 3.58847 13.2394 3.58871 13.1606L3.58877 13.1609Z" fill="var(--fill-0, white)"/>
</g>
</svg>
