<svg preserveAspectRatio="none" width="100%" height="100%" overflow="visible" style="display: block;" viewBox="0 0 13.7344 15.9984" fill="none" xmlns="http://www.w3.org/2000/svg">
<g id="Group">
<path id="Vector" d="M9.85859 2.9375C9.85859 3.76562 9.57422 4.45937 9.00859 5.02812C8.44297 5.59375 7.74609 5.87813 6.91797 5.87813C6.09297 5.87813 5.39609 5.59375 4.83047 5.02812C4.26484 4.4625 3.98047 3.76562 3.98047 2.9375C3.98047 2.10938 4.26484 1.41563 4.83047 0.846875C5.39609 0.278125 6.09609 0 6.92109 0C7.74922 0 8.44297 0.284375 9.01172 0.85C9.58047 1.41563 9.86172 2.1125 9.85859 2.9375Z" fill="var(--fill-0, white)"/>
<path id="Vector_2" d="M13.7344 6.04375V12.8062C13.7344 13.1781 13.4469 13.4844 13.0781 13.5094C12.0625 13.5812 11.0625 13.8125 10.1188 14.1938C9.10625 14.6 8.15938 15.1562 7.30938 15.8438C7.05 16.05 6.68437 16.05 6.425 15.8438C5.575 15.1562 4.62812 14.6 3.61562 14.1938C2.67187 13.8125 1.67188 13.5812 0.65625 13.5094C0.2875 13.4844 0 13.175 0 12.8062V6.04375C0.003125 5.65312 0.31875 5.3375 0.709375 5.3375C0.734375 5.3375 0.75625 5.3375 0.78125 5.34062C1.7125 5.43437 2.6375 5.69375 3.55937 6.12187C4.73437 6.66875 5.84063 7.43125 6.86875 8.4125C7.9 7.43438 9.00313 6.66875 10.1781 6.12187C11.0969 5.69375 12.025 5.43437 12.9563 5.34062C13.3438 5.3 13.6938 5.58125 13.7344 5.97188C13.7312 5.99688 13.7344 6.02187 13.7344 6.04375Z" fill="var(--fill-0, white)"/>
</g>
</svg>
