<svg width="130" height="130" viewBox="0 0 130 130" fill="none" xmlns="http://www.w3.org/2000/svg">
<g filter="url(#filter0_d_2568_8553)">
<path d="M21 61C21.0116 71.6051 25.2297 81.7725 32.7286 89.2714C40.2275 96.7703 50.3949 100.988 61 101H94.6C96.2974 101 97.9253 100.326 99.1255 99.1255C100.326 97.9252 101 96.2974 101 94.6V61C101 50.3913 96.7857 40.2172 89.2843 32.7157C81.7828 25.2143 71.6087 21 61 21C50.3913 21 40.2172 25.2143 32.7157 32.7157C25.2143 40.2172 21 50.3913 21 61Z" fill="black"/>
<path d="M21 61C21.0116 71.6051 25.2297 81.7725 32.7286 89.2714C40.2275 96.7703 50.3949 100.988 61 101H94.6C96.2974 101 97.9253 100.326 99.1255 99.1255C100.326 97.9252 101 96.2974 101 94.6V61C101 50.3913 96.7857 40.2172 89.2843 32.7157C81.7828 25.2143 71.6087 21 61 21C50.3913 21 40.2172 25.2143 32.7157 32.7157C25.2143 40.2172 21 50.3913 21 61Z" fill="url(#paint0_linear_2568_8553)"/>
<path d="M65.5099 48.1887H56.4899C55.3995 48.1883 54.3197 48.4027 53.3122 48.8197C52.3047 49.2368 51.3892 49.8482 50.6181 50.6192C49.847 51.3901 49.2354 52.3054 48.8182 53.3129C48.4009 54.3203 48.1863 55.4 48.1865 56.4904V65.5104C48.1861 66.6009 48.4006 67.6809 48.8177 68.6885C49.2348 69.6961 49.8464 70.6116 50.6175 71.3827C51.3887 72.1539 52.3042 72.7655 53.3118 73.1826C54.3194 73.5997 55.3993 73.8142 56.4899 73.8137H65.5099C66.6004 73.8142 67.6803 73.5997 68.6879 73.1826C69.6955 72.7655 70.6111 72.1539 71.3822 71.3827C72.1533 70.6116 72.7649 69.6961 73.182 68.6885C73.5992 67.6809 73.8136 66.6009 73.8132 65.5104V56.4904C73.8136 55.3999 73.5992 54.3199 73.182 53.3123C72.7649 52.3047 72.1533 51.3892 71.3822 50.6181C70.6111 49.847 69.6955 49.2354 68.6879 48.8182C67.6803 48.4011 66.6004 48.1866 65.5099 48.1871V48.1887Z" stroke="white"/>
<path d="M73.677 66.9804H76.3753C76.8284 66.9804 77.2629 66.8004 77.5833 66.4801C77.9037 66.1597 78.0837 65.7252 78.0837 65.2721V56.7304C78.0837 56.2773 77.9037 55.8428 77.5833 55.5225C77.2629 55.2021 76.8284 55.0221 76.3753 55.0221H73.6753M48.3253 66.9804H45.6253C45.401 66.9804 45.1788 66.9362 44.9716 66.8504C44.7643 66.7645 44.576 66.6387 44.4174 66.4801C44.2587 66.3214 44.1329 66.1331 44.047 65.9258C43.9612 65.7186 43.917 65.4964 43.917 65.2721V56.7304C43.917 56.2773 44.097 55.8428 44.4174 55.5225C44.7377 55.2021 45.1722 55.0221 45.6253 55.0221H48.3253" stroke="white"/>
<path d="M45.6084 55.0221V48.1887M76.3751 55.0221L76.3584 48.1887M55.8584 55.6054V60.1021M66.1084 55.6054V60.1021M57.5667 66.9804H64.4001" stroke="white" stroke-linecap="round" stroke-linejoin="round"/>
</g>
<defs>
<filter id="filter0_d_2568_8553" x="0" y="0" width="130" height="130" filterUnits="userSpaceOnUse" color-interpolation-filters="sRGB">
<feFlood flood-opacity="0" result="BackgroundImageFix"/>
<feColorMatrix in="SourceAlpha" type="matrix" values="0 0 0 0 0 0 0 0 0 0 0 0 0 0 0 0 0 0 127 0" result="hardAlpha"/>
<feOffset dx="4" dy="4"/>
<feGaussianBlur stdDeviation="12.5"/>
<feComposite in2="hardAlpha" operator="out"/>
<feColorMatrix type="matrix" values="0 0 0 0 0 0 0 0 0 0 0 0 0 0 0 0 0 0 0.25 0"/>
<feBlend mode="normal" in2="BackgroundImageFix" result="effect1_dropShadow_2568_8553"/>
<feBlend mode="normal" in="SourceGraphic" in2="effect1_dropShadow_2568_8553" result="shape"/>
</filter>
<linearGradient id="paint0_linear_2568_8553" x1="49.2222" y1="21" x2="0.0809673" y2="84.2805" gradientUnits="userSpaceOnUse">
<stop stop-color="#1F3A5F"/>
<stop offset="1" stop-color="#0B1F3B"/>
</linearGradient>
</defs>
</svg>
