<svg width="16" height="16" viewBox="0 0 16 16" fill="none" xmlns="http://www.w3.org/2000/svg">
<g clip-path="url(#clip0_2339_3313)">
<path d="M8.39132 1.72465C8.14133 1.47459 7.80224 1.33406 7.44865 1.33398H2.66732C2.3137 1.33398 1.97456 1.47446 1.72451 1.72451C1.47446 1.97456 1.33398 2.3137 1.33398 2.66732V7.44865C1.33406 7.80224 1.47459 8.14133 1.72465 8.39132L7.52732 14.194C7.83033 14.4951 8.24015 14.6641 8.66732 14.6641C9.09449 14.6641 9.50431 14.4951 9.80732 14.194L14.194 9.80732C14.4951 9.50431 14.6641 9.09449 14.6641 8.66732C14.6641 8.24015 14.4951 7.83033 14.194 7.52732L8.39132 1.72465Z" stroke="#00C950" stroke-width="1.33333" stroke-linecap="round" stroke-linejoin="round"/>
<path d="M4.99935 5.33268C5.18344 5.33268 5.33268 5.18344 5.33268 4.99935C5.33268 4.81525 5.18344 4.66602 4.99935 4.66602C4.81525 4.66602 4.66602 4.81525 4.66602 4.99935C4.66602 5.18344 4.81525 5.33268 4.99935 5.33268Z" fill="#00C950" stroke="#00C950" stroke-width="1.33333" stroke-linecap="round" stroke-linejoin="round"/>
</g>
<defs>
<clipPath id="clip0_2339_3313">
<rect width="16" height="16" fill="white"/>
</clipPath>
</defs>
</svg>
