<svg preserveAspectRatio="none" width="100%" height="100%" overflow="visible" style="display: block;" viewBox="0 0 15.9976 15.9976" fill="none" xmlns="http://www.w3.org/2000/svg">
<g id="Icon" clip-path="url(#clip0_0_4)">
<path id="Vector" d="M14.6649 11.2782V13.2779C14.6657 13.4636 14.6277 13.6473 14.5533 13.8174C14.4789 13.9875 14.3699 14.1402 14.2331 14.2657C14.0963 14.3912 13.9348 14.4867 13.7589 14.5462C13.5831 14.6057 13.3967 14.6278 13.2118 14.6111C11.1607 14.3882 9.19044 13.6873 7.45937 12.5647C5.84883 11.5413 4.48337 10.1758 3.45997 8.56531C2.33346 6.82638 1.63241 4.84654 1.41361 2.78619C1.39696 2.60186 1.41886 2.41608 1.47794 2.24068C1.53701 2.06529 1.63196 1.90411 1.75674 1.76742C1.88152 1.63073 2.03339 1.52152 2.20269 1.44674C2.37199 1.37196 2.555 1.33325 2.74008 1.33307H4.73978C5.06327 1.32989 5.37688 1.44444 5.62215 1.65538C5.86743 1.86632 6.02763 2.15925 6.07291 2.47957C6.15731 3.11951 6.31384 3.74786 6.53951 4.35262C6.62919 4.5912 6.6486 4.85048 6.59543 5.09976C6.54227 5.34903 6.41877 5.57784 6.23955 5.75907L5.39301 6.60561C6.34191 8.27439 7.72363 9.65611 9.39241 10.605L10.2389 9.75847C10.4202 9.57925 10.649 9.45574 10.8983 9.40258C11.1475 9.34942 11.4068 9.36883 11.6454 9.45851C12.2502 9.68418 12.8785 9.8407 13.5185 9.92511C13.8422 9.97079 14.138 10.1339 14.3493 10.3834C14.5607 10.6329 14.6731 10.9513 14.6649 11.2782Z" stroke="var(--stroke-0, #1F3A5F)" stroke-width="1.33313" stroke-linecap="round" stroke-linejoin="round"/>
</g>
<defs>
<clipPath id="clip0_0_4">
<rect width="15.9976" height="15.9976" fill="white"/>
</clipPath>
</defs>
</svg>
