<svg preserveAspectRatio="none" width="100%" height="100%" overflow="visible" style="display: block;" viewBox="0 0 27.0604 27.3419" fill="none" xmlns="http://www.w3.org/2000/svg">
<g id="Group">
<path id="Vector" d="M19.7821 2.56676H13.6039V0.718694C13.6039 0.528085 13.5281 0.345282 13.3934 0.210501C13.2586 0.0757193 13.0758 0 12.8852 0H11.7558C11.5652 0 11.3824 0.0757193 11.2476 0.210501C11.1128 0.345282 11.0371 0.528085 11.0371 0.718694V2.56676H4.85889C3.57044 2.56745 2.33496 3.07958 1.42389 3.99065C0.512816 4.90172 0.000680099 6.1372 0 7.42565V10.321C0 13.5062 1.26532 16.5609 3.51762 18.8132C5.76991 21.0655 8.82467 22.3309 12.0099 22.3309H12.8852C13.0758 22.3309 13.2586 22.2551 13.3934 22.1204C13.5281 21.9856 13.6039 21.8028 13.6039 21.6122V20.4828C13.6039 20.2922 13.5281 20.1094 13.3934 19.9746C13.2586 19.8398 13.0758 19.7641 12.8852 19.7641H12.0099C9.50542 19.7641 7.10352 18.7692 5.33259 16.9983C3.56166 15.2273 2.56677 12.8254 2.56677 10.321V7.42565C2.56677 6.81774 2.80826 6.23473 3.23811 5.80488C3.66797 5.37502 4.25098 5.13353 4.85889 5.13353H19.7821C20.39 5.13353 20.973 5.37502 21.4028 5.80488C21.8327 6.23473 22.0742 6.81774 22.0742 7.42565V10.5237C22.0726 11.2279 21.9864 11.9294 21.8175 12.6131C21.7727 12.7892 21.7966 12.9758 21.8843 13.135C21.972 13.2942 22.117 13.4141 22.2898 13.4704L23.3678 13.822C23.461 13.8529 23.5594 13.8644 23.6572 13.8556C23.7549 13.8469 23.8498 13.8182 23.9359 13.7712C24.0221 13.7243 24.0977 13.6602 24.158 13.5828C24.2184 13.5054 24.2622 13.4165 24.2867 13.3215C24.5202 12.4072 24.6391 11.4674 24.6409 10.5237V7.42565C24.6403 6.1372 24.1281 4.90172 23.2171 3.99065C22.306 3.07958 21.0705 2.56745 19.7821 2.56676Z" fill="var(--fill-0, #5B89B3)"/>
<path id="Vector_2" d="M8.21357 13.3471C9.34764 13.3471 10.267 12.4277 10.267 11.2936C10.267 10.1596 9.34764 9.24023 8.21357 9.24023C7.0795 9.24023 6.16016 10.1596 6.16016 11.2936C6.16016 12.4277 7.0795 13.3471 8.21357 13.3471Z" fill="var(--fill-0, #5B89B3)"/>
<path id="Vector_3" d="M16.4284 13.3471C17.5625 13.3471 18.4818 12.4277 18.4818 11.2936C18.4818 10.1596 17.5625 9.24023 16.4284 9.24023C15.2943 9.24023 14.375 10.1596 14.375 11.2936C14.375 12.4277 15.2943 13.3471 16.4284 13.3471Z" fill="var(--fill-0, #5B89B3)"/>
<path id="Vector_4" d="M24.5726 20.7395L26.8981 21.6559C26.9459 21.6748 26.987 21.7077 27.016 21.7502C27.0449 21.7928 27.0604 21.8431 27.0604 21.8946C27.0604 21.946 27.0449 21.9963 27.016 22.0389C26.987 22.0815 26.9459 22.1144 26.8981 22.1333L24.5726 23.0496C24.1609 23.2124 23.787 23.4579 23.474 23.7709C23.161 24.0839 22.9155 24.4578 22.7527 24.8694L21.8364 27.1795C21.8175 27.2274 21.7846 27.2685 21.742 27.2974C21.6995 27.3264 21.6492 27.3419 21.5977 27.3419C21.5462 27.3419 21.4959 27.3264 21.4534 27.2974C21.4108 27.2685 21.3779 27.2274 21.359 27.1795L20.4426 24.8694C20.2803 24.4576 20.0349 24.0835 19.7219 23.7704C19.4088 23.4573 19.0347 23.212 18.6228 23.0496L16.3127 22.1333C16.2648 22.1144 16.2238 22.0815 16.1948 22.0389C16.1659 21.9963 16.1504 21.946 16.1504 21.8946C16.1504 21.8431 16.1659 21.7928 16.1948 21.7502C16.2238 21.7077 16.2648 21.6748 16.3127 21.6559L18.6228 20.7395C19.0347 20.5772 19.4088 20.3318 19.7219 20.0187C20.0349 19.7057 20.2803 19.3316 20.4426 18.9197L21.359 16.6096C21.3779 16.5617 21.4108 16.5206 21.4534 16.4917C21.4959 16.4627 21.5462 16.4473 21.5977 16.4473C21.6492 16.4473 21.6995 16.4627 21.742 16.4917C21.7846 16.5206 21.8175 16.5617 21.8364 16.6096L22.7527 18.9197C22.9155 19.3313 23.161 19.7052 23.474 20.0183C23.787 20.3313 24.1609 20.5768 24.5726 20.7395Z" fill="var(--fill-0, #5B89B3)"/>
</g>
</svg>
