<svg preserveAspectRatio="none" width="100%" height="100%" overflow="visible" style="display: block;" viewBox="0 0 23.7333 24.9209" fill="none" xmlns="http://www.w3.org/2000/svg">
<g id="Group">
<g id="Layer 20">
<mask id="path-1-outside-1_0_64" maskUnits="userSpaceOnUse" x="-0.8" y="-0.8" width="25" height="26" fill="black">
<rect fill="white" x="-0.8" y="-0.8" width="25" height="26"/>
<path d="M22.95 0.2H0.783333C0.628624 0.2 0.480251 0.261458 0.370854 0.370854C0.261458 0.480251 0.2 0.628624 0.2 0.783333V3.11667C0.2 3.27138 0.261458 3.41975 0.370854 3.52915C0.480251 3.63854 0.628624 3.7 0.783333 3.7V18.2833C0.783333 18.438 0.844792 18.5864 0.954188 18.6958C1.06358 18.8052 1.21196 18.8667 1.36667 18.8667H10.4842L5.63667 23.72C5.52802 23.8293 5.46704 23.9771 5.46704 24.1313C5.46704 24.2854 5.52802 24.4332 5.63667 24.5425C5.74596 24.6511 5.89381 24.7121 6.04792 24.7121C6.20202 24.7121 6.34987 24.6511 6.45917 24.5425L11.2833 19.7183V24.1167C11.2833 24.2714 11.3448 24.4197 11.4542 24.5291C11.5636 24.6385 11.712 24.7 11.8667 24.7C12.0214 24.7 12.1697 24.6385 12.2791 24.5291C12.3885 24.4197 12.45 24.2714 12.45 24.1167V19.7183L17.28 24.5483C17.3342 24.603 17.3987 24.6464 17.4698 24.676C17.5409 24.7056 17.6172 24.7209 17.6942 24.7209C17.7712 24.7209 17.8474 24.7056 17.9185 24.676C17.9896 24.6464 18.0541 24.603 18.1083 24.5483C18.217 24.439 18.278 24.2912 18.278 24.1371C18.278 23.983 18.217 23.8351 18.1083 23.7258L13.2492 18.8667H22.3667C22.5214 18.8667 22.6697 18.8052 22.7791 18.6958C22.8885 18.5864 22.95 18.438 22.95 18.2833V3.7C23.1047 3.7 23.2531 3.63854 23.3625 3.52915C23.4719 3.41975 23.5333 3.27138 23.5333 3.11667V0.783333C23.5333 0.628624 23.4719 0.480251 23.3625 0.370854C23.2531 0.261458 23.1047 0.2 22.95 0.2ZM21.7833 17.7H1.95V3.7H21.7833V17.7ZM22.3667 2.53333H1.36667V1.36667H22.3667V2.53333ZM11.8667 16.5333C13.0204 16.5333 14.1482 16.1912 15.1075 15.5502C16.0668 14.9093 16.8145 13.9982 17.256 12.9323C17.6975 11.8664 17.813 10.6935 17.5879 9.56197C17.3628 8.43042 16.8073 7.39102 15.9915 6.57521C15.1756 5.7594 14.1362 5.20383 13.0047 4.97875C11.8731 4.75367 10.7002 4.86919 9.63435 5.3107C8.56844 5.75221 7.6574 6.49989 7.01643 7.45917C6.37545 8.41846 6.03333 9.54628 6.03333 10.7C6.03333 12.2471 6.64791 13.7308 7.74188 14.8248C8.83584 15.9188 10.3196 16.5333 11.8667 16.5333ZM7.78333 10.1167H7.24083C7.37103 9.08999 7.83881 8.13571 8.57059 7.40392C9.30238 6.67214 10.2567 6.20436 11.2833 6.07417V6.61667C11.2833 6.77138 11.3448 6.91975 11.4542 7.02915C11.5636 7.13854 11.712 7.2 11.8667 7.2C12.0214 7.2 12.1697 7.13854 12.2791 7.02915C12.3885 6.91975 12.45 6.77138 12.45 6.61667V6.07417C13.4767 6.20436 14.431 6.67214 15.1627 7.40392C15.8945 8.13571 16.3623 9.08999 16.4925 10.1167H15.95C15.7953 10.1167 15.6469 10.1781 15.5375 10.2875C15.4281 10.3969 15.3667 10.5453 15.3667 10.7C15.3667 10.8547 15.4281 11.0031 15.5375 11.1125C15.6469 11.2219 15.7953 11.2833 15.95 11.2833H16.4925C16.3623 12.31 15.8945 13.2643 15.1627 13.9961C14.431 14.7279 13.4767 15.1956 12.45 15.3258V14.7833C12.45 14.6286 12.3885 14.4802 12.2791 14.3709C12.1697 14.2615 12.0214 14.2 11.8667 14.2C11.712 14.2 11.5636 14.2615 11.4542 14.3709C11.3448 14.4802 11.2833 14.6286 11.2833 14.7833V15.3258C10.2567 15.1956 9.30238 14.7279 8.57059 13.9961C7.83881 13.2643 7.37103 12.31 7.24083 11.2833H7.78333C7.93804 11.2833 8.08642 11.2219 8.19581 11.1125C8.30521 11.0031 8.36667 10.8547 8.36667 10.7C8.36667 10.5453 8.30521 10.3969 8.19581 10.2875C8.08642 10.1781 7.93804 10.1167 7.78333 10.1167ZM11.2833 10.7V8.97917C11.2833 8.82446 11.3448 8.67608 11.4542 8.56669C11.5636 8.45729 11.712 8.39583 11.8667 8.39583C12.0214 8.39583 12.1697 8.45729 12.2791 8.56669C12.3885 8.67608 12.45 8.82446 12.45 8.97917V10.1167H13.0333C13.188 10.1167 13.3364 10.1781 13.4458 10.2875C13.5552 10.3969 13.6167 10.5453 13.6167 10.7C13.6167 10.8547 13.5552 11.0031 13.4458 11.1125C13.3364 11.2219 13.188 11.2833 13.0333 11.2833H11.8667C11.712 11.2833 11.5636 11.2219 11.4542 11.1125C11.3448 11.0031 11.2833 10.8547 11.2833 10.7Z"/>
</mask>
<path d="M22.95 0.2H0.783333C0.628624 0.2 0.480251 0.261458 0.370854 0.370854C0.261458 0.480251 0.2 0.628624 0.2 0.783333V3.11667C0.2 3.27138 0.261458 3.41975 0.370854 3.52915C0.480251 3.63854 0.628624 3.7 0.783333 3.7V18.2833C0.783333 18.438 0.844792 18.5864 0.954188 18.6958C1.06358 18.8052 1.21196 18.8667 1.36667 18.8667H10.4842L5.63667 23.72C5.52802 23.8293 5.46704 23.9771 5.46704 24.1313C5.46704 24.2854 5.52802 24.4332 5.63667 24.5425C5.74596 24.6511 5.89381 24.7121 6.04792 24.7121C6.20202 24.7121 6.34987 24.6511 6.45917 24.5425L11.2833 19.7183V24.1167C11.2833 24.2714 11.3448 24.4197 11.4542 24.5291C11.5636 24.6385 11.712 24.7 11.8667 24.7C12.0214 24.7 12.1697 24.6385 12.2791 24.5291C12.3885 24.4197 12.45 24.2714 12.45 24.1167V19.7183L17.28 24.5483C17.3342 24.603 17.3987 24.6464 17.4698 24.676C17.5409 24.7056 17.6172 24.7209 17.6942 24.7209C17.7712 24.7209 17.8474 24.7056 17.9185 24.676C17.9896 24.6464 18.0541 24.603 18.1083 24.5483C18.217 24.439 18.278 24.2912 18.278 24.1371C18.278 23.983 18.217 23.8351 18.1083 23.7258L13.2492 18.8667H22.3667C22.5214 18.8667 22.6697 18.8052 22.7791 18.6958C22.8885 18.5864 22.95 18.438 22.95 18.2833V3.7C23.1047 3.7 23.2531 3.63854 23.3625 3.52915C23.4719 3.41975 23.5333 3.27138 23.5333 3.11667V0.783333C23.5333 0.628624 23.4719 0.480251 23.3625 0.370854C23.2531 0.261458 23.1047 0.2 22.95 0.2ZM21.7833 17.7H1.95V3.7H21.7833V17.7ZM22.3667 2.53333H1.36667V1.36667H22.3667V2.53333ZM11.8667 16.5333C13.0204 16.5333 14.1482 16.1912 15.1075 15.5502C16.0668 14.9093 16.8145 13.9982 17.256 12.9323C17.6975 11.8664 17.813 10.6935 17.5879 9.56197C17.3628 8.43042 16.8073 7.39102 15.9915 6.57521C15.1756 5.7594 14.1362 5.20383 13.0047 4.97875C11.8731 4.75367 10.7002 4.86919 9.63435 5.3107C8.56844 5.75221 7.6574 6.49989 7.01643 7.45917C6.37545 8.41846 6.03333 9.54628 6.03333 10.7C6.03333 12.2471 6.64791 13.7308 7.74188 14.8248C8.83584 15.9188 10.3196 16.5333 11.8667 16.5333ZM7.78333 10.1167H7.24083C7.37103 9.08999 7.83881 8.13571 8.57059 7.40392C9.30238 6.67214 10.2567 6.20436 11.2833 6.07417V6.61667C11.2833 6.77138 11.3448 6.91975 11.4542 7.02915C11.5636 7.13854 11.712 7.2 11.8667 7.2C12.0214 7.2 12.1697 7.13854 12.2791 7.02915C12.3885 6.91975 12.45 6.77138 12.45 6.61667V6.07417C13.4767 6.20436 14.431 6.67214 15.1627 7.40392C15.8945 8.13571 16.3623 9.08999 16.4925 10.1167H15.95C15.7953 10.1167 15.6469 10.1781 15.5375 10.2875C15.4281 10.3969 15.3667 10.5453 15.3667 10.7C15.3667 10.8547 15.4281 11.0031 15.5375 11.1125C15.6469 11.2219 15.7953 11.2833 15.95 11.2833H16.4925C16.3623 12.31 15.8945 13.2643 15.1627 13.9961C14.431 14.7279 13.4767 15.1956 12.45 15.3258V14.7833C12.45 14.6286 12.3885 14.4802 12.2791 14.3709C12.1697 14.2615 12.0214 14.2 11.8667 14.2C11.712 14.2 11.5636 14.2615 11.4542 14.3709C11.3448 14.4802 11.2833 14.6286 11.2833 14.7833V15.3258C10.2567 15.1956 9.30238 14.7279 8.57059 13.9961C7.83881 13.2643 7.37103 12.31 7.24083 11.2833H7.78333C7.93804 11.2833 8.08642 11.2219 8.19581 11.1125C8.30521 11.0031 8.36667 10.8547 8.36667 10.7C8.36667 10.5453 8.30521 10.3969 8.19581 10.2875C8.08642 10.1781 7.93804 10.1167 7.78333 10.1167ZM11.2833 10.7V8.97917C11.2833 8.82446 11.3448 8.67608 11.4542 8.56669C11.5636 8.45729 11.712 8.39583 11.8667 8.39583C12.0214 8.39583 12.1697 8.45729 12.2791 8.56669C12.3885 8.67608 12.45 8.82446 12.45 8.97917V10.1167H13.0333C13.188 10.1167 13.3364 10.1781 13.4458 10.2875C13.5552 10.3969 13.6167 10.5453 13.6167 10.7C13.6167 10.8547 13.5552 11.0031 13.4458 11.1125C13.3364 11.2219 13.188 11.2833 13.0333 11.2833H11.8667C11.712 11.2833 11.5636 11.2219 11.4542 11.1125C11.3448 11.0031 11.2833 10.8547 11.2833 10.7Z" fill="var(--fill-0, #5B89B3)"/>
<path d="M22.95 0.2H0.783333C0.628624 0.2 0.480251 0.261458 0.370854 0.370854C0.261458 0.480251 0.2 0.628624 0.2 0.783333V3.11667C0.2 3.27138 0.261458 3.41975 0.370854 3.52915C0.480251 3.63854 0.628624 3.7 0.783333 3.7V18.2833C0.783333 18.438 0.844792 18.5864 0.954188 18.6958C1.06358 18.8052 1.21196 18.8667 1.36667 18.8667H10.4842L5.63667 23.72C5.52802 23.8293 5.46704 23.9771 5.46704 24.1313C5.46704 24.2854 5.52802 24.4332 5.63667 24.5425C5.74596 24.6511 5.89381 24.7121 6.04792 24.7121C6.20202 24.7121 6.34987 24.6511 6.45917 24.5425L11.2833 19.7183V24.1167C11.2833 24.2714 11.3448 24.4197 11.4542 24.5291C11.5636 24.6385 11.712 24.7 11.8667 24.7C12.0214 24.7 12.1697 24.6385 12.2791 24.5291C12.3885 24.4197 12.45 24.2714 12.45 24.1167V19.7183L17.28 24.5483C17.3342 24.603 17.3987 24.6464 17.4698 24.676C17.5409 24.7056 17.6172 24.7209 17.6942 24.7209C17.7712 24.7209 17.8474 24.7056 17.9185 24.676C17.9896 24.6464 18.0541 24.603 18.1083 24.5483C18.217 24.439 18.278 24.2912 18.278 24.1371C18.278 23.983 18.217 23.8351 18.1083 23.7258L13.2492 18.8667H22.3667C22.5214 18.8667 22.6697 18.8052 22.7791 18.6958C22.8885 18.5864 22.95 18.438 22.95 18.2833V3.7C23.1047 3.7 23.2531 3.63854 23.3625 3.52915C23.4719 3.41975 23.5333 3.27138 23.5333 3.11667V0.783333C23.5333 0.628624 23.4719 0.480251 23.3625 0.370854C23.2531 0.261458 23.1047 0.2 22.95 0.2ZM21.7833 17.7H1.95V3.7H21.7833V17.7ZM22.3667 2.53333H1.36667V1.36667H22.3667V2.53333ZM11.8667 16.5333C13.0204 16.5333 14.1482 16.1912 15.1075 15.5502C16.0668 14.9093 16.8145 13.9982 17.256 12.9323C17.6975 11.8664 17.813 10.6935 17.5879 9.56197C17.3628 8.43042 16.8073 7.39102 15.9915 6.57521C15.1756 5.7594 14.1362 5.20383 13.0047 4.97875C11.8731 4.75367 10.7002 4.86919 9.63435 5.3107C8.56844 5.75221 7.6574 6.49989 7.01643 7.45917C6.37545 8.41846 6.03333 9.54628 6.03333 10.7C6.03333 12.2471 6.64791 13.7308 7.74188 14.8248C8.83584 15.9188 10.3196 16.5333 11.8667 16.5333ZM7.78333 10.1167H7.24083C7.37103 9.08999 7.83881 8.13571 8.57059 7.40392C9.30238 6.67214 10.2567 6.20436 11.2833 6.07417V6.61667C11.2833 6.77138 11.3448 6.91975 11.4542 7.02915C11.5636 7.13854 11.712 7.2 11.8667 7.2C12.0214 7.2 12.1697 7.13854 12.2791 7.02915C12.3885 6.91975 12.45 6.77138 12.45 6.61667V6.07417C13.4767 6.20436 14.431 6.67214 15.1627 7.40392C15.8945 8.13571 16.3623 9.08999 16.4925 10.1167H15.95C15.7953 10.1167 15.6469 10.1781 15.5375 10.2875C15.4281 10.3969 15.3667 10.5453 15.3667 10.7C15.3667 10.8547 15.4281 11.0031 15.5375 11.1125C15.6469 11.2219 15.7953 11.2833 15.95 11.2833H16.4925C16.3623 12.31 15.8945 13.2643 15.1627 13.9961C14.431 14.7279 13.4767 15.1956 12.45 15.3258V14.7833C12.45 14.6286 12.3885 14.4802 12.2791 14.3709C12.1697 14.2615 12.0214 14.2 11.8667 14.2C11.712 14.2 11.5636 14.2615 11.4542 14.3709C11.3448 14.4802 11.2833 14.6286 11.2833 14.7833V15.3258C10.2567 15.1956 9.30238 14.7279 8.57059 13.9961C7.83881 13.2643 7.37103 12.31 7.24083 11.2833H7.78333C7.93804 11.2833 8.08642 11.2219 8.19581 11.1125C8.30521 11.0031 8.36667 10.8547 8.36667 10.7C8.36667 10.5453 8.30521 10.3969 8.19581 10.2875C8.08642 10.1781 7.93804 10.1167 7.78333 10.1167ZM11.2833 10.7V8.97917C11.2833 8.82446 11.3448 8.67608 11.4542 8.56669C11.5636 8.45729 11.712 8.39583 11.8667 8.39583C12.0214 8.39583 12.1697 8.45729 12.2791 8.56669C12.3885 8.67608 12.45 8.82446 12.45 8.97917V10.1167H13.0333C13.188 10.1167 13.3364 10.1781 13.4458 10.2875C13.5552 10.3969 13.6167 10.5453 13.6167 10.7C13.6167 10.8547 13.5552 11.0031 13.4458 11.1125C13.3364 11.2219 13.188 11.2833 13.0333 11.2833H11.8667C11.712 11.2833 11.5636 11.2219 11.4542 11.1125C11.3448 11.0031 11.2833 10.8547 11.2833 10.7Z" stroke="var(--stroke-0, #5B89B3)" stroke-width="0.4" mask="url(#path-1-outside-1_0_64)"/>
</g>
</g>
</svg>
