<svg preserveAspectRatio="none" width="100%" height="100%" overflow="visible" style="display: block;" viewBox="0 0 280.523 187.289" fill="none" xmlns="http://www.w3.org/2000/svg">
<path id="Vector" d="M21.2727 5.1517C21.2299 3.4954 19.8524 2.18742 18.1961 2.23024C16.5398 2.27307 15.2319 3.65048 15.2747 5.30678L18.2737 5.22924L21.2727 5.1517ZM171.35 83.9813L172.962 81.4507L172.961 81.4502L171.35 83.9813ZM93.5169 147.542L96.3961 146.7L96.396 146.699L93.5169 147.542ZM279.998 130.021C280.934 128.654 280.585 126.787 279.217 125.851C277.85 124.915 275.983 125.265 275.047 126.632L277.523 128.326L279.998 130.021ZM0.692616 19.2049C-0.36622 20.4793 -0.191489 22.3707 1.08289 23.4295C2.35726 24.4884 4.2487 24.3137 5.30754 23.0393L3.00008 21.1221L0.692616 19.2049ZM18.057 3.00015L19.6644 0.46716C18.3903 -0.341422 16.7139 -0.0777278 15.7495 1.08296L18.057 3.00015ZM36.9685 17.9669C38.4519 18.7049 40.2528 18.1007 40.9908 16.6173C41.7288 15.1339 41.1245 13.3331 39.6411 12.595L38.3048 15.281L36.9685 17.9669ZM18.2737 5.22924C15.2747 5.30678 15.2747 5.30812 15.2748 5.30987C15.2748 5.31102 15.2749 5.31321 15.2749 5.3155C15.275 5.3201 15.2752 5.32638 15.2754 5.33434C15.2759 5.35025 15.2765 5.37285 15.2774 5.40206C15.2792 5.46046 15.282 5.54527 15.286 5.65572C15.2939 5.87662 15.3066 6.2001 15.3261 6.62006C15.3651 7.45994 15.4312 8.68602 15.5401 10.2495C15.7578 13.3758 16.1467 17.8544 16.8327 23.294C18.2034 34.1644 20.7657 48.9178 25.5384 64.4078C35.0293 95.2111 53.5575 129.834 89.7964 141.563L90.7202 138.708L91.6439 135.854C58.3053 125.064 40.6103 92.9477 31.2724 62.6411C26.6306 47.576 24.127 33.1819 22.7855 22.5434C22.1154 17.2286 21.7366 12.8624 21.5256 9.83267C21.4201 8.31806 21.3567 7.13822 21.3197 6.3417C21.3012 5.94347 21.2893 5.64113 21.2821 5.44075C21.2785 5.34056 21.2761 5.26588 21.2746 5.21745C21.2739 5.19323 21.2733 5.17558 21.273 5.16459C21.2729 5.1591 21.2728 5.15527 21.2727 5.15311C21.2727 5.15204 21.2727 5.15169 21.2727 5.15114C21.2727 5.15121 21.2727 5.1517 18.2737 5.22924ZM90.7202 138.708L89.7964 141.563C125.563 153.138 153.455 143.439 169.047 128.188C176.791 120.613 181.574 111.579 182.566 103.083C183.569 94.4863 180.652 86.3474 172.962 81.4507L171.35 83.9813L169.739 86.5118C175.145 89.9537 177.394 95.6398 176.606 102.387C175.807 109.233 171.841 117.062 164.851 123.898C150.975 137.471 125.455 146.797 91.6439 135.854L90.7202 138.708ZM171.35 83.9813L172.961 81.4502C165.634 76.7882 155.778 75.434 145.658 76.6058C135.488 77.7835 124.722 81.5429 115.306 87.525C96.441 99.5105 82.5629 120.809 90.6378 148.385L93.5169 147.542L96.396 146.699C89.2798 122.397 101.222 103.581 118.524 92.5893C127.191 87.0827 137.095 83.6374 146.348 82.566C155.651 81.4887 163.97 82.8409 169.74 86.5123L171.35 83.9813ZM93.5169 147.542L90.6377 148.385C94.7571 162.46 105.938 172.745 120.641 179.154C135.34 185.561 153.808 188.227 173.183 186.997C211.887 184.539 255.058 166.457 279.998 130.021L277.523 128.326L275.047 126.632C251.401 161.177 210.159 178.637 172.803 181.009C154.146 182.194 136.672 179.596 123.038 173.653C109.408 167.712 99.8671 158.559 96.3961 146.7L93.5169 147.542ZM3.00008 21.1221L5.30754 23.0393L20.3644 4.91734L18.057 3.00015L15.7495 1.08296L0.692616 19.2049L3.00008 21.1221ZM18.057 3.00015C16.4495 5.53313 16.4496 5.53319 16.4497 5.53329C16.4499 5.53337 16.4501 5.53351 16.4504 5.53368C16.4509 5.53402 16.4517 5.53451 16.4527 5.53515C16.4547 5.53645 16.4577 5.53835 16.4617 5.54087C16.4696 5.54589 16.4814 5.55335 16.4968 5.56315C16.5278 5.58277 16.5736 5.61181 16.6334 5.64971C16.7531 5.72552 16.9288 5.83678 17.1538 5.97901C17.6038 6.26345 18.2508 6.67183 19.0401 7.16823C20.6181 8.16078 22.7666 9.50642 25.0462 10.9175C29.5342 13.6954 34.7388 16.8576 36.9685 17.9669L38.3048 15.281L39.6411 12.595C37.7222 11.6403 32.8029 8.66218 28.2041 5.81568C25.9403 4.4145 23.8047 3.07693 22.2345 2.08932C21.4496 1.59565 20.8065 1.18971 20.3598 0.907357C20.1365 0.766187 19.9623 0.65593 19.8442 0.581066C19.7851 0.543634 19.74 0.515053 19.7097 0.495881C19.6946 0.486295 19.6832 0.479063 19.6756 0.474252C19.6718 0.471847 19.669 0.470048 19.6671 0.468863C19.6662 0.46827 19.6655 0.467831 19.6651 0.467547C19.6648 0.467405 19.6647 0.467308 19.6646 0.467237C19.6645 0.467179 19.6644 0.46716 18.057 3.00015Z" fill="var(--stroke-0, #5B89B3)"/>
</svg>
