<svg preserveAspectRatio="none" width="100%" height="100%" overflow="visible" style="display: block;" viewBox="0 0 28 28" fill="none" xmlns="http://www.w3.org/2000/svg">
<g id="Icon">
<path id="Vector" d="M18.6654 23.333V4.66634C18.6654 4.0475 18.4195 3.45401 17.9819 3.01643C17.5444 2.57884 16.9509 2.33301 16.332 2.33301H11.6654C11.0465 2.33301 10.453 2.57884 10.0154 3.01643C9.57786 3.45401 9.33203 4.0475 9.33203 4.66634V23.333" stroke="var(--stroke-0, #5B89B3)" stroke-width="2.33333" stroke-linecap="round" stroke-linejoin="round"/>
<path id="Vector_2" d="M23.332 7H4.66536C3.3767 7 2.33203 8.04467 2.33203 9.33333V21C2.33203 22.2887 3.3767 23.3333 4.66536 23.3333H23.332C24.6207 23.3333 25.6654 22.2887 25.6654 21V9.33333C25.6654 8.04467 24.6207 7 23.332 7Z" stroke="var(--stroke-0, #5B89B3)" stroke-width="2.33333" stroke-linecap="round" stroke-linejoin="round"/>
</g>
</svg>
