<svg preserveAspectRatio="none" width="100%" height="100%" overflow="visible" style="display: block;" viewBox="0 0 24 24" fill="none" xmlns="http://www.w3.org/2000/svg">
<g id="Icon">
<path id="Vector" d="M21.4208 10.9219C21.5998 10.8429 21.7517 10.7131 21.8577 10.5487C21.9637 10.3842 22.0191 10.1923 22.0171 9.99661C22.0151 9.80095 21.9557 9.61019 21.8463 9.44795C21.737 9.28571 21.5824 9.15912 21.4018 9.08387L12.8308 5.17987C12.5702 5.06102 12.2872 4.99951 12.0008 4.99951C11.7144 4.99951 11.4313 5.06102 11.1708 5.17987L2.60077 9.07987C2.42274 9.15784 2.27129 9.286 2.16494 9.44868C2.05859 9.61136 2.00195 9.80151 2.00195 9.99587C2.00195 10.1902 2.05859 10.3804 2.16494 10.5431C2.27129 10.7057 2.42274 10.8339 2.60077 10.9119L11.1708 14.8199C11.4313 14.9387 11.7144 15.0002 12.0008 15.0002C12.2872 15.0002 12.5702 14.9387 12.8308 14.8199L21.4208 10.9219Z" stroke="var(--stroke-0, white)" stroke-width="2" stroke-linecap="round" stroke-linejoin="round"/>
<path id="Vector_2" d="M22 10V16" stroke="var(--stroke-0, white)" stroke-width="2" stroke-linecap="round" stroke-linejoin="round"/>
<path id="Vector_3" d="M6 12.5V16C6 16.7956 6.63214 17.5587 7.75736 18.1213C8.88258 18.6839 10.4087 19 12 19C13.5913 19 15.1174 18.6839 16.2426 18.1213C17.3679 17.5587 18 16.7956 18 16V12.5" stroke="var(--stroke-0, white)" stroke-width="2" stroke-linecap="round" stroke-linejoin="round"/>
</g>
</svg>
