<svg preserveAspectRatio="none" width="100%" height="100%" overflow="visible" style="display: block;" viewBox="0 0 16 15.8797" fill="none" xmlns="http://www.w3.org/2000/svg">
<g id="Group">
<path id="Vector" d="M9.33333 5.93965L15.2067 7.10631C15.68 7.20631 16 7.60631 16 8.07965V14.8796C16 15.433 15.5533 15.8796 15 15.8796H9C9.18667 15.8796 9.33333 15.733 9.33333 15.5463V15.213H15C15.18 15.213 15.3333 15.0663 15.3333 14.8796V8.07965C15.3333 7.92631 15.2267 7.78631 15.0733 7.75298L9.33333 6.61965V5.93965Z" fill="var(--fill-0, #364153)"/>
<path id="Vector_2" d="M12.9993 9.21299C13.186 9.21299 13.3327 9.35966 13.3327 9.54633C13.3327 9.73299 13.186 9.87966 12.9993 9.87966H11.666C11.4793 9.87966 11.3327 9.73299 11.3327 9.54633C11.3327 9.35966 11.4793 9.21299 11.666 9.21299H12.9993ZM12.9993 11.213C13.186 11.213 13.3327 11.3597 13.3327 11.5463C13.3327 11.733 13.186 11.8797 12.9993 11.8797H11.666C11.4793 11.8797 11.3327 11.733 11.3327 11.5463C11.3327 11.3597 11.4793 11.213 11.666 11.213H12.9993ZM12.9993 13.213C13.186 13.213 13.3327 13.3597 13.3327 13.5463C13.3327 13.733 13.186 13.8797 12.9993 13.8797H11.666C11.4793 13.8797 11.3327 13.733 11.3327 13.5463C11.3327 13.3597 11.4793 13.213 11.666 13.213H12.9993ZM9.33268 15.5463C9.33268 15.733 9.18602 15.8797 8.99935 15.8797C8.81268 15.8797 8.66602 15.733 8.66602 15.5463V6.21299C8.66602 6.11299 8.71268 6.01966 8.78602 5.95299C8.86602 5.89299 8.96602 5.86633 9.06602 5.88633L9.33268 5.93966V15.213V15.5463Z" fill="var(--fill-0, #364153)"/>
<path id="Vector_3" d="M8.66667 15.213V15.5463C8.66667 15.733 8.81333 15.8796 9 15.8796H6.33333C6.52 15.8796 6.66667 15.733 6.66667 15.5463V15.213H8.66667ZM7 3.21298C7.18667 3.21298 7.33333 3.35965 7.33333 3.54631C7.33333 3.73298 7.18667 3.87965 7 3.87965H5.66667C5.48 3.87965 5.33333 3.73298 5.33333 3.54631C5.33333 3.35965 5.48 3.21298 5.66667 3.21298H7ZM7.33333 5.54631C7.33333 5.73298 7.18667 5.87965 7 5.87965H5.66667C5.48 5.87965 5.33333 5.73298 5.33333 5.54631C5.33333 5.35965 5.48 5.21298 5.66667 5.21298H7C7.18667 5.21298 7.33333 5.35965 7.33333 5.54631ZM7 7.21298C7.18667 7.21298 7.33333 7.35965 7.33333 7.54631C7.33333 7.73298 7.18667 7.87965 7 7.87965H5.66667C5.48 7.87965 5.33333 7.73298 5.33333 7.54631C5.33333 7.35965 5.48 7.21298 5.66667 7.21298H7ZM7 9.21298C7.18667 9.21298 7.33333 9.35965 7.33333 9.54631C7.33333 9.73298 7.18667 9.87965 7 9.87965H5.66667C5.48 9.87965 5.33333 9.73298 5.33333 9.54631C5.33333 9.35965 5.48 9.21298 5.66667 9.21298H7ZM4 9.54631C4 9.73298 3.85333 9.87965 3.66667 9.87965H2.33333C2.14667 9.87965 2 9.73298 2 9.54631C2 9.35965 2.14667 9.21298 2.33333 9.21298H3.66667C3.85333 9.21298 4 9.35965 4 9.54631ZM3.66667 3.21298C3.85333 3.21298 4 3.35965 4 3.54631C4 3.73298 3.85333 3.87965 3.66667 3.87965H2.33333C2.14667 3.87965 2 3.73298 2 3.54631C2 3.35965 2.14667 3.21298 2.33333 3.21298H3.66667ZM3.66667 5.21298C3.85333 5.21298 4 5.35965 4 5.54631C4 5.73298 3.85333 5.87965 3.66667 5.87965H2.33333C2.14667 5.87965 2 5.73298 2 5.54631C2 5.35965 2.14667 5.21298 2.33333 5.21298H3.66667ZM3.66667 7.21298C3.85333 7.21298 4 7.35965 4 7.54631C4 7.73298 3.85333 7.87965 3.66667 7.87965H2.33333C2.14667 7.87965 2 7.73298 2 7.54631C2 7.35965 2.14667 7.21298 2.33333 7.21298H3.66667ZM6 12.213C6 12.0263 5.84667 11.8796 5.66667 11.8796H3.66667C3.48 11.8796 3.33333 12.0263 3.33333 12.213V15.213H2.66667V12.213C2.66667 11.6596 3.11333 11.213 3.66667 11.213H5.66667C6.22 11.213 6.66667 11.6596 6.66667 12.213V15.213H6V12.213Z" fill="var(--fill-0, #364153)"/>
<path id="Vector_4" d="M3.33268 15.213H6.66602V15.5463C6.66602 15.733 6.51935 15.8796 6.33268 15.8796H2.99935C2.81268 15.8796 2.66602 15.733 2.66602 15.5463V15.213H3.33268Z" fill="var(--fill-0, #364153)"/>
<path id="Vector_5" d="M1.16667 0.0129793L8.49333 1.12631C8.98 1.20631 9.33333 1.61965 9.33333 2.11298V5.93965L9.06667 5.88631C8.96667 5.86631 8.86667 5.89298 8.78667 5.95298C8.71333 6.01965 8.66667 6.11298 8.66667 6.21298V2.11298C8.66667 1.94631 8.54667 1.80631 8.38667 1.77965L1.06 0.672979C1.04 0.666313 1.02 0.666313 1 0.666313C0.92 0.666313 0.846667 0.692979 0.786667 0.746313C0.706667 0.812979 0.666667 0.899646 0.666667 0.999646V14.8796C0.666667 15.0663 0.82 15.213 1 15.213H2.66667V15.5463C2.66667 15.733 2.81333 15.8796 3 15.8796H1C0.446667 15.8796 0 15.433 0 14.8796V0.999646C0 0.706313 0.126667 0.426313 0.353333 0.239646C0.58 0.0463127 0.873333 -0.0336874 1.16667 0.0129793Z" fill="var(--fill-0, #364153)"/>
</g>
</svg>
