<svg preserveAspectRatio="none" width="100%" height="100%" overflow="visible" style="display: block;" viewBox="0 0 19.997 19.997" fill="none" xmlns="http://www.w3.org/2000/svg">
<g id="Icon" clip-path="url(#clip0_0_4)">
<path id="Vector" d="M18.1644 8.33207C18.5449 10.1995 18.2737 12.141 17.396 13.8327C16.5183 15.5245 15.0872 16.8642 13.3413 17.6284C11.5955 18.3927 9.64033 18.5353 7.80201 18.0326C5.96368 17.5298 4.35327 16.412 3.23934 14.8656C2.12542 13.3192 1.5753 11.4376 1.68074 9.53471C1.78617 7.63179 2.54078 5.82253 3.81873 4.40864C5.09668 2.99476 6.82072 2.06171 8.70334 1.76511C10.586 1.46851 12.5134 1.82627 14.1641 2.77875" stroke="var(--stroke-0, #60A5FA)" stroke-width="1.66641" stroke-linecap="round" stroke-linejoin="round"/>
<path id="Vector_2" d="M7.49887 9.16528L9.99849 11.6649L18.3306 3.33283" stroke="var(--stroke-0, #60A5FA)" stroke-width="1.66641" stroke-linecap="round" stroke-linejoin="round"/>
</g>
<defs>
<clipPath id="clip0_0_4">
<rect width="19.997" height="19.997" fill="white"/>
</clipPath>
</defs>
</svg>
