<svg preserveAspectRatio="none" width="100%" height="100%" overflow="visible" style="display: block;" viewBox="0 0 28 28" fill="none" xmlns="http://www.w3.org/2000/svg">
<g id="Icon">
<path id="Vector" d="M13.9997 25.6666C20.443 25.6666 25.6663 20.4432 25.6663 13.9999C25.6663 7.5566 20.443 2.33325 13.9997 2.33325C7.55635 2.33325 2.33301 7.5566 2.33301 13.9999C2.33301 20.4432 7.55635 25.6666 13.9997 25.6666Z" stroke="var(--stroke-0, #5B89B3)" stroke-width="2.33333" stroke-linecap="round" stroke-linejoin="round"/>
<path id="Vector_2" d="M14 21C17.866 21 21 17.866 21 14C21 10.134 17.866 7 14 7C10.134 7 7 10.134 7 14C7 17.866 10.134 21 14 21Z" stroke="var(--stroke-0, #5B89B3)" stroke-width="2.33333" stroke-linecap="round" stroke-linejoin="round"/>
<path id="Vector_3" d="M14.0003 16.3334C15.289 16.3334 16.3337 15.2887 16.3337 14.0001C16.3337 12.7114 15.289 11.6667 14.0003 11.6667C12.7117 11.6667 11.667 12.7114 11.667 14.0001C11.667 15.2887 12.7117 16.3334 14.0003 16.3334Z" stroke="var(--stroke-0, #5B89B3)" stroke-width="2.33333" stroke-linecap="round" stroke-linejoin="round"/>
</g>
</svg>
