<svg preserveAspectRatio="none" width="100%" height="100%" overflow="visible" style="display: block;" viewBox="0 0 9.99733 9.25791" fill="none" xmlns="http://www.w3.org/2000/svg">
<path id="Vector" d="M7.89567 0.833474L9.15817 7.93847C9.17231 8.02214 9.16057 8.10812 9.12452 8.18493C9.08847 8.26174 9.02983 8.32572 8.95644 8.3683C8.88305 8.41089 8.79841 8.43005 8.71384 8.42323C8.62926 8.41641 8.54878 8.38393 8.48316 8.33014L5.49983 6.09097C5.35581 5.98338 5.18086 5.92524 5.00108 5.92524C4.82131 5.92524 4.64635 5.98338 4.50233 6.09097L1.514 8.32931C1.44843 8.383 1.36805 8.41543 1.28358 8.42226C1.19911 8.42909 1.11456 8.41 1.04122 8.36753C0.967877 8.32506 0.909229 8.26125 0.873098 8.18459C0.836967 8.10793 0.825072 8.02207 0.838999 7.93847L2.10067 0.833474" stroke="var(--stroke-0, #1F3A5F)" stroke-width="1.66667" stroke-linecap="round" stroke-linejoin="round"/>
</svg>
