<svg preserveAspectRatio="none" width="100%" height="100%" overflow="visible" style="display: block;" viewBox="0 0 32 32" fill="none" xmlns="http://www.w3.org/2000/svg">
<g id="Icon">
<path id="Vector" d="M26.667 21.3327V9.33268C26.667 8.62544 26.3861 7.94716 25.886 7.44706C25.3859 6.94697 24.7076 6.66602 24.0004 6.66602H8.00035C7.29311 6.66602 6.61483 6.94697 6.11474 7.44706C5.61464 7.94716 5.33369 8.62544 5.33369 9.33268V21.3327M26.667 21.3327H5.33369M26.667 21.3327L28.3737 24.7327C28.4765 24.9367 28.5251 25.1636 28.515 25.3918C28.5049 25.62 28.4363 25.8418 28.3159 26.0359C28.1954 26.2299 28.0271 26.3898 27.8271 26.5002C27.6271 26.6105 27.4021 26.6676 27.1737 26.666H4.82702C4.59861 26.6676 4.37361 26.6105 4.17361 26.5002C3.97361 26.3898 3.80531 26.2299 3.68485 26.0359C3.56439 25.8418 3.49581 25.62 3.48569 25.3918C3.47556 25.1636 3.52423 24.9367 3.62702 24.7327L5.33369 21.3327" stroke="var(--stroke-0, #60A5FA)" stroke-width="2.66667" stroke-linecap="round" stroke-linejoin="round"/>
</g>
</svg>
