<svg preserveAspectRatio="none" width="100%" height="100%" overflow="visible" style="display: block;" viewBox="0 0 24 24" fill="none" xmlns="http://www.w3.org/2000/svg">
<g id="Icon">
<path id="Vector" d="M12 5.00005C12.0012 4.60008 11.9224 4.20391 11.7682 3.83485C11.614 3.46579 11.3876 3.13128 11.1023 2.851C10.8169 2.57072 10.4784 2.35032 10.1067 2.20278C9.73491 2.05524 9.33739 1.98353 8.93751 1.99186C8.53762 2.0002 8.14344 2.08841 7.77815 2.25132C7.41286 2.41422 7.08383 2.64853 6.81041 2.94045C6.537 3.23238 6.32472 3.57604 6.18606 3.9512C6.04741 4.32637 5.98517 4.72548 6.00301 5.12505C5.41521 5.27619 4.86952 5.5591 4.40724 5.95236C3.94497 6.34562 3.57825 6.83892 3.33486 7.3949C3.09146 7.95087 2.97777 8.55494 3.0024 9.16136C3.02703 9.76778 3.18933 10.3606 3.47701 10.8951C2.97119 11.306 2.57344 11.8343 2.31835 12.434C2.06327 13.0337 1.95857 13.6866 2.01338 14.336C2.06818 14.9854 2.28083 15.6116 2.63282 16.1601C2.98481 16.7085 3.46548 17.1627 4.03301 17.4831C3.96293 18.0253 4.00475 18.5761 4.1559 19.1016C4.30705 19.627 4.56431 20.1159 4.9118 20.538C5.25929 20.9601 5.68962 21.3065 6.17623 21.5558C6.66284 21.8051 7.19539 21.952 7.74099 21.9874C8.28659 22.0228 8.83365 21.946 9.3484 21.7617C9.86315 21.5774 10.3346 21.2895 10.7338 20.9158C11.1329 20.5421 11.4512 20.0906 11.669 19.5891C11.8868 19.0876 11.9994 18.5468 12 18V5.00005Z" stroke="var(--stroke-0, #0B1F3B)" stroke-linecap="round" stroke-linejoin="round"/>
<path id="Vector_2" d="M12 5.00005C11.9988 4.60008 12.0776 4.20391 12.2318 3.83485C12.386 3.46579 12.6124 3.13128 12.8977 2.851C13.1831 2.57072 13.5216 2.35032 13.8934 2.20278C14.2651 2.05524 14.6626 1.98353 15.0625 1.99186C15.4624 2.0002 15.8566 2.08841 16.2219 2.25132C16.5872 2.41422 16.9162 2.64853 17.1896 2.94045C17.463 3.23238 17.6753 3.57604 17.814 3.9512C17.9526 4.32637 18.0149 4.72548 17.997 5.12505C18.5848 5.27619 19.1305 5.5591 19.5928 5.95236C20.0551 6.34562 20.4218 6.83892 20.6652 7.3949C20.9086 7.95087 21.0223 8.55494 20.9976 9.16136C20.973 9.76778 20.8107 10.3606 20.523 10.8951C21.0288 11.306 21.4266 11.8343 21.6817 12.434C21.9368 13.0337 22.0415 13.6866 21.9867 14.336C21.9318 14.9854 21.7192 15.6116 21.3672 16.1601C21.0152 16.7085 20.5345 17.1627 19.967 17.4831C20.0371 18.0253 19.9953 18.5761 19.8441 19.1016C19.693 19.627 19.4357 20.1159 19.0882 20.538C18.7407 20.9601 18.3104 21.3065 17.8238 21.5558C17.3372 21.8051 16.8046 21.952 16.259 21.9874C15.7134 22.0228 15.1664 21.946 14.6516 21.7617C14.1369 21.5774 13.6654 21.2895 13.2663 20.9158C12.8671 20.5421 12.5488 20.0906 12.331 19.5891C12.1133 19.0876 12.0006 18.5468 12 18V5.00005Z" stroke="var(--stroke-0, #0B1F3B)" stroke-linecap="round" stroke-linejoin="round"/>
<path id="Vector_3" d="M15 13C14.1604 12.7047 13.4273 12.167 12.8933 11.455C12.3593 10.743 12.0485 9.88867 12 9C11.9515 9.88867 11.6407 10.743 11.1067 11.455C10.5727 12.167 9.83956 12.7047 9 13" stroke="var(--stroke-0, #0B1F3B)" stroke-linecap="round" stroke-linejoin="round"/>
<path id="Vector_4" d="M17.599 6.5C17.841 6.08059 17.9779 5.60882 17.998 5.125" stroke="var(--stroke-0, #0B1F3B)" stroke-linecap="round" stroke-linejoin="round"/>
<path id="Vector_5" d="M6.00299 5.125C6.02277 5.60873 6.15932 6.0805 6.40099 6.5" stroke="var(--stroke-0, #0B1F3B)" stroke-linecap="round" stroke-linejoin="round"/>
<path id="Vector_6" d="M3.47699 10.896C3.65993 10.747 3.85569 10.6145 4.06199 10.5" stroke="var(--stroke-0, #0B1F3B)" stroke-linecap="round" stroke-linejoin="round"/>
<path id="Vector_7" d="M19.938 10.5C20.1443 10.6145 20.34 10.747 20.523 10.896" stroke="var(--stroke-0, #0B1F3B)" stroke-linecap="round" stroke-linejoin="round"/>
<path id="Vector_8" d="M5.99999 17.9999C5.31082 18.0002 4.63326 17.8225 4.03299 17.4839" stroke="var(--stroke-0, #0B1F3B)" stroke-linecap="round" stroke-linejoin="round"/>
<path id="Vector_9" d="M19.967 17.4839C19.3667 17.8225 18.6892 18.0002 18 17.9999" stroke="var(--stroke-0, #0B1F3B)" stroke-linecap="round" stroke-linejoin="round"/>
</g>
</svg>
