<svg preserveAspectRatio="none" width="100%" height="100%" overflow="visible" style="display: block;" viewBox="0 0 24 28.8" fill="none" xmlns="http://www.w3.org/2000/svg">
<g id="Icon">
<path id="Vector" d="M15.3 9.7L16.7 11.1L13 14.8V19.4H11V14L15.3 9.7ZM12 4.4C10.6167 4.4 9.31667 4.6625 8.1 5.1875C6.88333 5.7125 5.825 6.425 4.925 7.325C4.025 8.225 3.3125 9.28333 2.7875 10.5C2.2625 11.7167 2 13.0167 2 14.4C2 15.7833 2.2625 17.0833 2.7875 18.3C3.3125 19.5167 4.025 20.575 4.925 21.475C5.825 22.375 6.88333 23.0875 8.1 23.6125C9.31667 24.1375 10.6167 24.4 12 24.4C13.3833 24.4 14.6833 24.1375 15.9 23.6125C17.1167 23.0875 18.175 22.375 19.075 21.475C19.975 20.575 20.6875 19.5167 21.2125 18.3C21.7375 17.0833 22 15.7833 22 14.4C22 13.0167 21.7375 11.7167 21.2125 10.5C20.6875 9.28333 19.975 8.225 19.075 7.325C18.175 6.425 17.1167 5.7125 15.9 5.1875C14.6833 4.6625 13.3833 4.4 12 4.4ZM12 6.4C14.2167 6.4 16.1042 7.17917 17.6625 8.7375C19.2208 10.2958 20 12.1833 20 14.4C20 16.6167 19.2208 18.5042 17.6625 20.0625C16.1042 21.6208 14.2167 22.4 12 22.4C9.78333 22.4 7.89583 21.6208 6.3375 20.0625C4.77917 18.5042 4 16.6167 4 14.4C4 12.1833 4.77917 10.2958 6.3375 8.7375C7.89583 7.17917 9.78333 6.4 12 6.4Z" fill="var(--fill-0, #545A5F)"/>
</g>
</svg>
