<svg preserveAspectRatio="none" width="100%" height="100%" overflow="visible" style="display: block;" viewBox="0 0 28 28" fill="none" xmlns="http://www.w3.org/2000/svg">
<g id="Icon">
<path id="Vector" d="M24.9893 12.7414C25.1981 12.6493 25.3754 12.4979 25.499 12.3061C25.6227 12.1142 25.6873 11.8902 25.685 11.662C25.6826 11.4337 25.6134 11.2112 25.4858 11.0219C25.3581 10.8326 25.1778 10.6849 24.9671 10.5971L14.9676 6.04245C14.6636 5.90379 14.3334 5.83203 13.9993 5.83203C13.6652 5.83203 13.3349 5.90379 13.0309 6.04245L3.03261 10.5924C2.82491 10.6834 2.64821 10.8329 2.52414 11.0227C2.40006 11.2125 2.33398 11.4344 2.33398 11.6611C2.33398 11.8879 2.40006 12.1097 2.52414 12.2995C2.64821 12.4893 2.82491 12.6388 3.03261 12.7298L13.0309 17.2891C13.3349 17.4278 13.6652 17.4995 13.9993 17.4995C14.3334 17.4995 14.6636 17.4278 14.9676 17.2891L24.9893 12.7414Z" stroke="var(--stroke-0, #5B89B3)" stroke-width="2.33333" stroke-linecap="round" stroke-linejoin="round"/>
<path id="Vector_2" d="M25.666 11.666V18.666" stroke="var(--stroke-0, #5B89B3)" stroke-width="2.33333" stroke-linecap="round" stroke-linejoin="round"/>
<path id="Vector_3" d="M7 14.584V18.6673C7 19.5956 7.7375 20.4858 9.05025 21.1422C10.363 21.7986 12.1435 22.1673 14 22.1673C15.8565 22.1673 17.637 21.7986 18.9497 21.1422C20.2625 20.4858 21 19.5956 21 18.6673V14.584" stroke="var(--stroke-0, #5B89B3)" stroke-width="2.33333" stroke-linecap="round" stroke-linejoin="round"/>
</g>
</svg>
