<svg preserveAspectRatio="none" width="100%" height="100%" overflow="visible" style="display: block;" viewBox="0 0 28 28" fill="none" xmlns="http://www.w3.org/2000/svg">
<g id="Icon">
<path id="Vector" d="M23.3327 15.1659C23.3327 20.9992 19.2493 23.9159 14.396 25.6076C14.1419 25.6937 13.8658 25.6896 13.6143 25.5959C8.74935 23.9159 4.66602 20.9992 4.66602 15.1659V6.99922C4.66602 6.6898 4.78893 6.39306 5.00772 6.17426C5.22652 5.95547 5.52326 5.83256 5.83268 5.83256C8.16602 5.83256 11.0827 4.43256 13.1127 2.65922C13.3598 2.44805 13.6743 2.33203 13.9993 2.33203C14.3244 2.33203 14.6389 2.44805 14.886 2.65922C16.9277 4.44422 19.8327 5.83256 22.166 5.83256C22.4754 5.83256 22.7722 5.95547 22.991 6.17426C23.2098 6.39306 23.3327 6.6898 23.3327 6.99922V15.1659Z" stroke="var(--stroke-0, #5B89B3)" stroke-width="2.33333" stroke-linecap="round" stroke-linejoin="round"/>
</g>
</svg>
