<svg preserveAspectRatio="none" width="100%" height="100%" overflow="visible" style="display: block;" viewBox="0 0 28 28" fill="none" xmlns="http://www.w3.org/2000/svg">
<g id="Icon">
<path id="Vector" d="M4.66674 16.3331C4.44596 16.3339 4.22951 16.272 4.04252 16.1546C3.85553 16.0372 3.70568 15.8692 3.61038 15.67C3.51508 15.4709 3.47825 15.2488 3.50416 15.0296C3.53006 14.8103 3.61765 14.6029 3.75674 14.4314L15.3067 2.53145C15.3934 2.43144 15.5114 2.36387 15.6416 2.3398C15.7717 2.31574 15.9061 2.33663 16.0228 2.39904C16.1394 2.46144 16.2314 2.56166 16.2836 2.68324C16.3358 2.80482 16.3452 2.94054 16.3101 3.06812L14.0701 10.0914C14.004 10.2682 13.9818 10.4584 14.0054 10.6456C14.029 10.8329 14.0977 11.0116 14.2055 11.1664C14.3133 11.3213 14.4571 11.4477 14.6246 11.5348C14.792 11.6219 14.978 11.6671 15.1667 11.6664H23.3334C23.5542 11.6657 23.7706 11.7276 23.9576 11.845C24.1446 11.9623 24.2945 12.1304 24.3898 12.3295C24.4851 12.5287 24.5219 12.7508 24.496 12.97C24.4701 13.1893 24.3825 13.3967 24.2434 13.5681L12.6934 25.4681C12.6068 25.5681 12.4887 25.6357 12.3586 25.6598C12.2285 25.6838 12.0941 25.6629 11.9774 25.6005C11.8607 25.5381 11.7687 25.4379 11.7165 25.3163C11.6643 25.1947 11.655 25.059 11.6901 24.9314L13.9301 17.9081C13.9961 17.7313 14.0183 17.5412 13.9947 17.3539C13.9711 17.1667 13.9025 16.988 13.7946 16.8331C13.6868 16.6782 13.543 16.5518 13.3756 16.4648C13.2082 16.3777 13.0221 16.3325 12.8334 16.3331H4.66674Z" stroke="var(--stroke-0, #5B89B3)" stroke-width="2.33333" stroke-linecap="round" stroke-linejoin="round"/>
</g>
</svg>
