<svg preserveAspectRatio="none" width="100%" height="100%" overflow="visible" style="display: block;" viewBox="0 0 28 28" fill="none" xmlns="http://www.w3.org/2000/svg">
<g id="Icon">
<path id="Vector" d="M14.0007 25.6673C20.444 25.6673 25.6673 20.444 25.6673 14.0007C25.6673 7.55733 20.444 2.33398 14.0007 2.33398C7.55733 2.33398 2.33398 7.55733 2.33398 14.0007C2.33398 20.444 7.55733 25.6673 14.0007 25.6673Z" stroke="var(--stroke-0, #5B89B3)" stroke-width="2.33333" stroke-linecap="round" stroke-linejoin="round"/>
<path id="Vector_2" d="M14 21C17.866 21 21 17.866 21 14C21 10.134 17.866 7 14 7C10.134 7 7 10.134 7 14C7 17.866 10.134 21 14 21Z" stroke="var(--stroke-0, #5B89B3)" stroke-width="2.33333" stroke-linecap="round" stroke-linejoin="round"/>
<path id="Vector_3" d="M13.9993 16.3327C15.288 16.3327 16.3327 15.288 16.3327 13.9993C16.3327 12.7107 15.288 11.666 13.9993 11.666C12.7107 11.666 11.666 12.7107 11.666 13.9993C11.666 15.288 12.7107 16.3327 13.9993 16.3327Z" stroke="var(--stroke-0, #5B89B3)" stroke-width="2.33333" stroke-linecap="round" stroke-linejoin="round"/>
</g>
</svg>
