<svg preserveAspectRatio="none" width="100%" height="100%" overflow="visible" style="display: block;" viewBox="0 0 24 28.8" fill="none" xmlns="http://www.w3.org/2000/svg">
<g id="Icon">
<path id="Vector" d="M15 6.4C12.7667 6.4 10.875 7.175 9.325 8.725C7.775 10.275 7 12.1667 7 14.4C7 16.6167 7.775 18.5042 9.325 20.0625C10.875 21.6208 12.7667 22.4 15 22.4C17.2167 22.4 19.1042 21.6208 20.6625 20.0625C22.2208 18.5042 23 16.6167 23 14.4C23 12.1667 22.2208 10.275 20.6625 8.725C19.1042 7.175 17.2167 6.4 15 6.4ZM15 8.4C16.6667 8.4 18.0833 8.98333 19.25 10.15C20.4167 11.3167 21 12.7333 21 14.4C21 16.0667 20.4167 17.4833 19.25 18.65C18.0833 19.8167 16.6667 20.4 15 20.4C13.3333 20.4 11.9167 19.8167 10.75 18.65C9.58333 17.4833 9 16.0667 9 14.4C9 12.7333 9.58333 11.3167 10.75 10.15C11.9167 8.98333 13.3333 8.4 15 8.4ZM17.275 10.675L18.7 12.1L16 14.8V18.4H14V13.975L17.275 10.675ZM2 17.4V19.4H6V17.4H2ZM1 13.4V15.4H6V13.4H1ZM2 9.4V11.4H6V9.4H2Z" fill="var(--fill-0, #A94442)"/>
</g>
</svg>
