<svg preserveAspectRatio="none" width="100%" height="100%" overflow="visible" style="display: block;" viewBox="0 0 16 16" fill="none" xmlns="http://www.w3.org/2000/svg">
<g id="Icon" clip-path="url(#clip0_0_7)">
<path id="Vector" d="M9.69021 14.4577C9.71554 14.5208 9.75957 14.5747 9.81639 14.6121C9.87322 14.6494 9.94011 14.6685 10.0081 14.6668C10.0761 14.665 10.1419 14.6426 10.1968 14.6023C10.2516 14.5621 10.2928 14.506 10.3149 14.4417L14.6482 1.77503C14.6695 1.71596 14.6736 1.65203 14.66 1.59073C14.6463 1.52943 14.6154 1.47329 14.571 1.42888C14.5266 1.38447 14.4705 1.35363 14.4092 1.33996C14.3479 1.32629 14.2839 1.33036 14.2249 1.3517L1.55821 5.68503C1.49388 5.70709 1.43783 5.74831 1.39759 5.80314C1.35736 5.85798 1.33486 5.92381 1.33312 5.9918C1.33138 6.05979 1.35047 6.12669 1.38785 6.18351C1.42523 6.24034 1.47909 6.28437 1.54221 6.3097L6.82888 8.4297C6.996 8.49661 7.14785 8.59667 7.27526 8.72385C7.40266 8.85103 7.503 9.00269 7.57021 9.1697L9.69021 14.4577Z" stroke="var(--stroke-0, #DBEBFF)" stroke-width="1.33333" stroke-linecap="round" stroke-linejoin="round"/>
<path id="Vector_2" d="M14.5697 1.43164L7.27637 8.72431" stroke="var(--stroke-0, #DBEBFF)" stroke-width="1.33333" stroke-linecap="round" stroke-linejoin="round"/>
</g>
<defs>
<clipPath id="clip0_0_7">
<rect width="16" height="16" fill="white"/>
</clipPath>
</defs>
</svg>
