<svg preserveAspectRatio="none" width="100%" height="100%" overflow="visible" style="display: block;" viewBox="0 0 20 20" fill="none" xmlns="http://www.w3.org/2000/svg">
<g id="Icon">
<path id="Vector" d="M9.60502 1.91371C9.64153 1.83993 9.69795 1.77782 9.76789 1.7344C9.83784 1.69098 9.91852 1.66797 10.0008 1.66797C10.0832 1.66797 10.1639 1.69098 10.2338 1.7344C10.3037 1.77782 10.3602 1.83993 10.3967 1.91371L12.3217 5.81288C12.4485 6.06952 12.6357 6.29155 12.8672 6.45992C13.0987 6.6283 13.3676 6.73797 13.6508 6.77955L17.9558 7.40955C18.0374 7.42137 18.1141 7.45577 18.1771 7.50888C18.2401 7.56199 18.287 7.63167 18.3125 7.71005C18.338 7.78843 18.3411 7.87239 18.3213 7.95241C18.3016 8.03243 18.2599 8.10534 18.2009 8.16288L15.0875 11.1945C14.8822 11.3946 14.7286 11.6416 14.6399 11.9142C14.5512 12.1869 14.5301 12.477 14.5783 12.7595L15.3134 17.0429C15.3277 17.1244 15.3189 17.2083 15.2879 17.2851C15.2569 17.3619 15.205 17.4284 15.138 17.477C15.071 17.5257 14.9917 17.5545 14.9091 17.5603C14.8265 17.566 14.7439 17.5485 14.6708 17.5095L10.8225 15.4862C10.5689 15.3531 10.2868 15.2835 10.0004 15.2835C9.71403 15.2835 9.43192 15.3531 9.17835 15.4862L5.33085 17.5095C5.25779 17.5482 5.17535 17.5656 5.09289 17.5598C5.01044 17.5539 4.93128 17.525 4.86443 17.4764C4.79758 17.4278 4.74571 17.3614 4.71473 17.2847C4.68375 17.2081 4.6749 17.1243 4.68918 17.0429L5.42335 12.7604C5.47185 12.4777 5.45084 12.1874 5.36213 11.9146C5.27343 11.6418 5.11969 11.3947 4.91418 11.1945L1.80085 8.16371C1.74134 8.10624 1.69918 8.03321 1.67915 7.95294C1.65913 7.87267 1.66205 7.78839 1.68758 7.70971C1.71312 7.63102 1.76024 7.56108 1.82358 7.50787C1.88692 7.45465 1.96393 7.4203 2.04585 7.40871L6.35002 6.77955C6.63356 6.7383 6.90284 6.62876 7.13467 6.46037C7.3665 6.29198 7.55394 6.06977 7.68085 5.81288L9.60502 1.91371Z" fill="var(--fill-0, #F9D716)" stroke="var(--stroke-0, #F9D716)" stroke-width="1.66667" stroke-linecap="round" stroke-linejoin="round"/>
</g>
</svg>
