<svg preserveAspectRatio="none" width="100%" height="100%" overflow="visible" style="display: block;" viewBox="0 0 24 24" fill="none" xmlns="http://www.w3.org/2000/svg">
<g id="Icon">
<path id="Vector" d="M6 22V4C6 3.46957 6.21071 2.96086 6.58579 2.58579C6.96086 2.21071 7.46957 2 8 2H16C16.5304 2 17.0391 2.21071 17.4142 2.58579C17.7893 2.96086 18 3.46957 18 4V22H6Z" stroke="var(--stroke-0, #0B1F3B)" stroke-linecap="round" stroke-linejoin="round"/>
<path id="Vector_2" d="M6 12H4C3.46957 12 2.96086 12.2107 2.58579 12.5858C2.21071 12.9609 2 13.4696 2 14V20C2 20.5304 2.21071 21.0391 2.58579 21.4142C2.96086 21.7893 3.46957 22 4 22H6" stroke="var(--stroke-0, #0B1F3B)" stroke-linecap="round" stroke-linejoin="round"/>
<path id="Vector_3" d="M18 9H20C20.5304 9 21.0391 9.21071 21.4142 9.58579C21.7893 9.96086 22 10.4696 22 11V20C22 20.5304 21.7893 21.0391 21.4142 21.4142C21.0391 21.7893 20.5304 22 20 22H18" stroke="var(--stroke-0, #0B1F3B)" stroke-linecap="round" stroke-linejoin="round"/>
<path id="Vector_4" d="M10 6H14" stroke="var(--stroke-0, #0B1F3B)" stroke-linecap="round" stroke-linejoin="round"/>
<path id="Vector_5" d="M10 10H14" stroke="var(--stroke-0, #0B1F3B)" stroke-linecap="round" stroke-linejoin="round"/>
<path id="Vector_6" d="M10 14H14" stroke="var(--stroke-0, #0B1F3B)" stroke-linecap="round" stroke-linejoin="round"/>
<path id="Vector_7" d="M10 18H14" stroke="var(--stroke-0, #0B1F3B)" stroke-linecap="round" stroke-linejoin="round"/>
</g>
</svg>
