<svg preserveAspectRatio="none" width="100%" height="100%" overflow="visible" style="display: block;" viewBox="0 0 24 24" fill="none" xmlns="http://www.w3.org/2000/svg">
<g id="Icon">
<path id="Vector" d="M12.83 2.18011C12.5694 2.06126 12.2864 1.99976 12 1.99976C11.7136 1.99976 11.4306 2.06126 11.17 2.18011L2.59999 6.08011C2.42254 6.15836 2.27167 6.28651 2.16576 6.44897C2.05984 6.61143 2.00345 6.80118 2.00345 6.99511C2.00345 7.18905 2.05984 7.3788 2.16576 7.54126C2.27167 7.70371 2.42254 7.83187 2.59999 7.91011L11.18 11.8201C11.4406 11.939 11.7236 12.0005 12.01 12.0005C12.2964 12.0005 12.5794 11.939 12.84 11.8201L21.42 7.92011C21.5974 7.84187 21.7483 7.71371 21.8542 7.55126C21.9601 7.3888 22.0165 7.19905 22.0165 7.00511C22.0165 6.81118 21.9601 6.62143 21.8542 6.45897C21.7483 6.29651 21.5974 6.16836 21.42 6.09011L12.83 2.18011Z" stroke="var(--stroke-0, #0B1F3B)" stroke-linecap="round" stroke-linejoin="round"/>
<path id="Vector_2" d="M2 12C1.99953 12.1913 2.05392 12.3787 2.15672 12.5399C2.25952 12.7012 2.40642 12.8297 2.58 12.91L11.18 16.82C11.4392 16.9374 11.7205 16.9981 12.005 16.9981C12.2895 16.9981 12.5708 16.9374 12.83 16.82L21.41 12.92C21.587 12.8404 21.737 12.7111 21.8418 12.5477C21.9466 12.3844 22.0015 12.1941 22 12" stroke="var(--stroke-0, #0B1F3B)" stroke-linecap="round" stroke-linejoin="round"/>
<path id="Vector_3" d="M2 17C1.99953 17.1913 2.05392 17.3787 2.15672 17.5399C2.25952 17.7012 2.40642 17.8297 2.58 17.91L11.18 21.82C11.4392 21.9374 11.7205 21.9981 12.005 21.9981C12.2895 21.9981 12.5708 21.9374 12.83 21.82L21.41 17.92C21.587 17.8404 21.737 17.7111 21.8418 17.5477C21.9466 17.3844 22.0015 17.1941 22 17" stroke="var(--stroke-0, #0B1F3B)" stroke-linecap="round" stroke-linejoin="round"/>
</g>
</svg>
