<svg preserveAspectRatio="none" width="100%" height="100%" overflow="visible" style="display: block;" viewBox="0 0 28 28" fill="none" xmlns="http://www.w3.org/2000/svg">
<g id="Icon">
<path id="Vector" d="M18.6673 24.5V22.1667C18.6673 20.929 18.1757 19.742 17.3005 18.8668C16.4253 17.9917 15.2383 17.5 14.0007 17.5H7.00065C5.76297 17.5 4.57599 17.9917 3.70082 18.8668C2.82565 19.742 2.33398 20.929 2.33398 22.1667V24.5" stroke="var(--stroke-0, #5B89B3)" stroke-width="2.33333" stroke-linecap="round" stroke-linejoin="round"/>
<path id="Vector_2" d="M10.5007 12.8333C13.078 12.8333 15.1673 10.744 15.1673 8.16667C15.1673 5.58934 13.078 3.5 10.5007 3.5C7.92332 3.5 5.83398 5.58934 5.83398 8.16667C5.83398 10.744 7.92332 12.8333 10.5007 12.8333Z" stroke="var(--stroke-0, #5B89B3)" stroke-width="2.33333" stroke-linecap="round" stroke-linejoin="round"/>
<path id="Vector_3" d="M25.666 24.5007V22.1673C25.6652 21.1334 25.3211 20.1289 24.6876 19.3117C24.0541 18.4945 23.1672 17.9108 22.166 17.6523" stroke="var(--stroke-0, #5B89B3)" stroke-width="2.33333" stroke-linecap="round" stroke-linejoin="round"/>
<path id="Vector_4" d="M18.666 3.65234C19.6698 3.90936 20.5596 4.49316 21.1949 5.31171C21.8303 6.13025 22.1752 7.13698 22.1752 8.17318C22.1752 9.20938 21.8303 10.2161 21.1949 11.0346C20.5596 11.8532 19.6698 12.437 18.666 12.694" stroke="var(--stroke-0, #5B89B3)" stroke-width="2.33333" stroke-linecap="round" stroke-linejoin="round"/>
</g>
</svg>
