<svg preserveAspectRatio="none" width="100%" height="100%" overflow="visible" style="display: block;" viewBox="0 0 24 28.8" fill="none" xmlns="http://www.w3.org/2000/svg">
<g id="Icon">
<path id="Vector" d="M5 4.4C4.45 4.4 3.97917 4.59583 3.5875 4.9875C3.19583 5.37917 3 5.85 3 6.4V20.4C3 20.95 3.19583 21.4208 3.5875 21.8125C3.97917 22.2042 4.45 22.4 5 22.4H6V24.4H8V22.4H16V24.4H18V22.4H19C19.55 22.4 20.0208 22.2042 20.4125 21.8125C20.8042 21.4208 21 20.95 21 20.4V6.4C21 5.85 20.8042 5.37917 20.4125 4.9875C20.0208 4.59583 19.55 4.4 19 4.4H5ZM5 6.4H19V16.4H5V6.4ZM5 18.4H19V20.4H5V18.4Z" fill="var(--fill-0, #545A5F)"/>
</g>
</svg>
